<svg width="1920" height="1080" viewBox="0 0 1920 1080" fill="none" xmlns="http://www.w3.org/2000/svg">
<g clip-path="url(#clip0_12_108)">
<rect width="1920" height="1080" fill="white"/>
<mask id="mask0_12_108" style="mask-type:luminance" maskUnits="userSpaceOnUse" x="51" y="161" width="772" height="769">
<path d="M51.3784 161.921H822.055V929.151H51.3784V161.921Z" fill="white"/>
</mask>
<g mask="url(#mask0_12_108)">
<path d="M534.074 277.858C533.848 294.009 531.674 312.081 528.743 331.215C527.252 340.942 525.562 350.966 523.851 361.11C520.851 378.899 517.789 397.054 515.638 414.608C512.253 442.241 511.005 469.167 515.811 492.26C520.648 515.504 531.693 535.15 552.992 547.55L555.856 549.217L558.298 546.978C583.315 524.04 598.634 491.245 612.757 458.491C614.193 455.161 615.617 451.831 617.037 448.51C626.794 425.692 636.375 403.283 648.602 383.823C642.635 413.084 634.141 455.848 631.867 493.747C630.439 517.553 631.406 540.111 637.384 556.384C640.395 564.582 644.804 571.535 651.159 576.136C657.605 580.803 665.594 582.717 675.045 581.619C686.899 580.242 695.758 570.155 702.72 558.144C709.833 545.873 715.836 530.046 721.371 514.617C722.348 511.894 723.31 509.185 724.261 506.506C728.767 493.815 733.033 481.802 737.513 472.196C740.221 466.39 742.889 461.733 745.562 458.455C745.818 458.143 746.069 457.847 746.317 457.568C737.119 547.155 722.569 648.602 689.243 728.485C654.824 810.988 600.981 869.266 513.243 869.134C495.641 869.102 481.583 864.357 467.342 859.549C466.903 859.401 466.464 859.253 466.025 859.105C451.424 854.182 436.439 849.317 418.157 850.871L413.761 851.245L414.048 855.647C415.246 874.046 421.065 888.033 430.177 898.426C439.251 908.776 451.295 915.225 464.404 919.11C490.449 926.828 521.671 924.69 545.24 922.029L545.241 922.029C629.04 912.549 700.492 846.256 747.625 756.036C794.824 665.688 818.174 550.435 805.256 441.167L805.255 441.162C803.55 426.89 799.411 409.531 792.212 395.748C785.113 382.157 774.18 370.573 758.487 371.315L758.477 371.316L758.466 371.316C747.062 371.908 738.879 377.395 732.747 385.228C726.767 392.869 722.629 402.87 719.006 412.883C717.919 415.888 716.88 418.888 715.85 421.859C713.362 429.04 710.932 436.054 708.023 442.573C707.346 444.09 706.652 445.558 705.937 446.973C713.067 418.57 719.382 381.826 718.324 350.466C717.65 330.457 713.958 311.869 704.844 299.13C700.22 292.666 694.184 287.689 686.514 284.894C678.876 282.11 669.933 281.603 659.642 283.541C646.74 285.965 637.595 294.337 630.644 305.139C623.746 315.859 618.699 329.444 614.097 343.158C612.984 346.472 611.898 349.793 610.818 353.097C607.361 363.666 603.96 374.066 599.932 383.556C596.637 391.318 593.031 398.189 588.848 403.802C590.245 389.42 592.547 373.234 594.982 356.146L595.01 355.947C598.159 333.84 601.512 310.307 603.284 287.701C605.06 265.053 605.274 243.068 602.019 224.154C598.771 205.273 591.965 188.878 579.2 178.123C562.938 164.412 548.664 160.16 536.165 164.455C524.062 168.614 515.362 180.28 508.728 193.967C502.006 207.834 496.893 224.868 492.545 241.35C490.871 247.695 489.32 253.92 487.833 259.884C485.405 269.622 483.152 278.662 480.826 286.386C473.93 309.165 466.493 330.567 459.233 351.14C458.322 353.721 457.414 356.29 456.51 358.846C454.209 365.355 451.934 371.788 449.712 378.158C451.954 344.31 454.298 303.171 451.023 267.55C448.775 243.101 443.84 220.557 433.954 204.529C428.97 196.448 422.645 189.89 414.66 185.661C406.651 181.419 397.27 179.679 386.459 180.77C371.91 182.216 360.549 193.429 351.609 208.308C342.576 223.343 335.34 243.219 329.413 264.18C321.018 293.866 315.038 326.59 310.428 351.823C308.543 362.136 306.887 371.198 305.388 378.29L305.388 378.291C302.218 393.305 299.351 410.76 296.366 428.928C295.926 431.606 295.483 434.3 295.037 437.003C291.551 458.112 287.82 479.889 283.178 500.031C278.528 520.208 273.018 538.503 266.057 552.713C259.041 567.036 250.931 576.427 241.518 580.042C221.69 587.638 200.178 584.893 179.467 575.689C160.49 567.255 142.482 553.511 127.686 537.967C133.287 535.69 139.667 534.676 146.669 534.479C155.878 534.221 165.768 535.379 175.882 536.659C176.553 536.744 177.225 536.829 177.897 536.914C187.225 538.1 196.738 539.309 205.484 539.304C214.859 539.299 223.99 537.915 231.497 533.134L233.635 531.773L233.579 529.239C233.185 511.37 224.321 496.859 211.245 486.067C198.232 475.327 180.923 468.134 162.974 464.588C145.012 461.04 126.081 461.077 109.664 465.109C93.3014 469.129 78.9154 477.266 70.9385 490.373C54.2123 517.816 55.4601 543.842 68.1886 565.933C80.7368 587.711 104.185 605.275 131.27 617.09C158.416 628.932 189.719 635.226 218.579 634.066C247.372 632.909 274.331 624.29 292.015 605.616L292.016 605.615C311.547 584.981 322.092 552.04 329.202 518.112C332.78 501.041 335.531 483.479 338.072 466.782C338.319 465.164 338.563 463.554 338.806 461.954C341.076 446.995 343.218 432.881 345.704 420.411C346.366 417.099 347.025 413.788 347.683 410.48C356.188 367.708 364.617 325.322 380.411 284.561C381.172 303.058 380.071 323.578 378.518 344.809C378.074 350.879 377.593 357.008 377.11 363.156C375.34 385.698 373.55 408.5 373.495 429.612C373.425 456.415 376.124 481.308 385.702 500.091C390.533 509.568 397.144 517.549 406.048 523.392C414.946 529.232 425.899 532.783 439.187 533.758L441.914 533.958L443.348 531.63C467.043 493.151 481.888 445.764 495.673 398.005C497.316 392.312 498.945 386.614 500.571 380.923C510.753 345.286 520.854 309.936 534.074 277.858Z" stroke="#F8589F" stroke-width="9"/>
</g>
<path d="M1073.7 570.307C1076.28 570.749 1079.88 571.421 1084.5 572.335C1094.03 574.334 1101.93 575.427 1108.14 575.427C1116.2 575.427 1123.64 573.956 1130.54 570.963L1130.54 570.96L1130.55 570.956C1136.34 568.418 1141.06 565.767 1144.13 562.766L1158.07 593.332C1157.84 593.781 1157.56 594.287 1157.23 594.861L1157.22 594.872L1157.22 594.883C1156.5 596.146 1154.71 598.615 1151.53 602.406C1148.54 605.952 1145.16 609.156 1141.47 612.142C1138.02 614.822 1133.2 617.344 1126.94 619.625L1126.88 619.645L1126.83 619.666C1120.95 621.976 1114.62 623.173 1107.87 623.173C1096.47 623.173 1082.16 619.425 1064.78 611.573C1046.93 603.378 1031.15 599.165 1017.43 599.165C1009.98 599.165 1002.86 600.406 996.263 603.017C990.156 605.345 985.264 607.971 981.949 611.06L972.834 597.212C972.92 597.109 973.01 597.003 973.104 596.895C973.807 596.174 974.905 595 976.359 593.448C977.26 592.485 978.297 591.378 979.46 590.142C982.617 586.924 985.524 584.097 988.266 581.69C990.963 579.371 994.138 577.239 997.847 575.183C1001.42 573.405 1004.45 572.699 1006.99 572.699H1011.49V568.199V567.108V563.411L1007.86 562.693C979.638 557.109 957.063 542.979 939.941 520.207L939.936 520.201L939.932 520.196C922.724 497.461 914.084 470.341 914.084 438.611C914.084 402.991 925.601 373.164 948.698 348.96C971.954 324.591 999.955 312.431 1032.95 312.431C1065.93 312.431 1093.72 324.587 1116.64 348.937L1116.65 348.946L1116.65 348.955C1139.69 373.165 1151.27 402.997 1151.27 438.611C1151.27 467.776 1143.55 493.332 1128.26 515.44L1128.25 515.445C1113.09 537.411 1093.12 552.132 1068.28 559.807L1065.11 560.787V564.107V565.198V569.698H1069.61C1069.59 569.698 1069.6 569.699 1069.63 569.701C1069.72 569.709 1070.03 569.736 1070.66 569.823C1071.4 569.926 1072.41 570.085 1073.7 570.307ZM969.175 467.261L969.185 467.302L969.196 467.343C971.596 476.193 975.279 484.292 980.254 491.612L980.265 491.628L980.276 491.644C985.567 499.286 992.679 505.237 1001.56 509.507C1010.66 513.883 1021.19 515.953 1032.95 515.953C1054.9 515.953 1071.93 508.641 1083.13 493.386C1094.1 478.497 1099.53 460.123 1099.53 438.611C1099.53 417.276 1094.02 399.036 1082.85 384.087C1071.48 368.758 1054.56 361.269 1032.95 361.269C1011.24 361.269 994.217 368.841 982.524 384.338L982.521 384.343C971.269 399.299 965.829 417.48 965.829 438.611C965.829 448.758 966.934 458.337 969.175 467.261Z" stroke="black" stroke-width="9"/>
<path d="M1359.76 513.28L1359.8 513.269L1359.83 513.258C1367.94 510.501 1374.27 507.853 1378.64 505.209L1378.8 505.11L1378.96 504.996L1380.25 504.058L1400.27 544.89C1400.16 544.975 1400.05 545.061 1399.94 545.148C1398.6 545.997 1395.58 547.635 1390.53 550.309L1390.51 550.32L1390.48 550.332C1385.68 552.947 1380.46 555.311 1374.78 557.422C1369.38 559.339 1362.11 561.057 1352.8 562.674L1352.79 562.676C1343.76 564.265 1334.39 565.063 1324.67 565.063C1302.44 565.063 1281.32 559.541 1261.3 548.449C1241.44 537.232 1225.4 521.809 1213.15 502.253C1201.08 482.774 1195.1 461.771 1195.1 439.156C1195.1 422.2 1198.58 405.782 1205.67 389.998C1212.93 374.134 1222.5 360.718 1234.34 349.692L1234.35 349.683L1234.36 349.674C1246.27 338.456 1260.07 329.466 1275.86 322.708L1275.87 322.705L1275.88 322.701C1291.72 315.844 1307.97 312.431 1324.67 312.431C1340.34 312.431 1354.62 314.428 1367.54 318.249L1367.57 318.256L1367.59 318.264C1381.02 322.059 1389.98 325.716 1394.89 329.088C1394.89 329.092 1394.9 329.096 1394.9 329.099L1400.27 332.864L1380.24 373.479C1379.5 373.007 1378.72 372.525 1377.88 372.036C1374.61 369.905 1368.56 367.457 1360.34 364.773C1351.49 361.767 1342.44 360.177 1333.23 360.177C1319.14 360.177 1306.3 362.584 1294.85 367.336C1283.61 371.925 1274.43 378.239 1267.47 386.289L1267.47 386.293C1260.87 393.955 1255.78 402.301 1252.24 411.322L1252.23 411.34L1252.23 411.357C1248.82 420.243 1247.11 429.313 1247.11 438.611C1247.11 458.94 1254.63 477.195 1269.45 493.227L1269.46 493.242L1269.47 493.257C1284.79 509.526 1306.24 517.317 1333.23 517.317C1342.35 517.317 1351.25 516.029 1359.76 513.28Z" stroke="black" stroke-width="9"/>
<path d="M1657.23 559.965L1645.89 415.971C1645.67 413.12 1643.29 410.921 1640.43 410.921C1638.09 410.921 1636 412.411 1635.24 414.628L1586.05 558.45C1585.98 558.652 1585.79 558.788 1585.58 558.788H1559.01C1558.8 558.788 1558.61 558.652 1558.54 558.45L1509.34 414.627C1508.59 412.411 1506.5 410.921 1504.16 410.921C1501.3 410.921 1498.92 413.125 1498.7 415.979L1487.62 559.964C1487.6 560.224 1487.38 560.425 1487.12 560.425H1440.74C1440.45 560.425 1440.22 560.174 1440.25 559.881L1461.58 317.525C1461.6 317.267 1461.82 317.069 1462.07 317.069H1513.98C1514.18 317.069 1514.37 317.198 1514.44 317.393L1563.4 447.413C1566.49 455.616 1578.1 455.616 1581.18 447.413L1630.14 317.393C1630.22 317.198 1630.4 317.069 1630.61 317.069H1682.78C1683.04 317.069 1683.26 317.267 1683.28 317.525L1704.61 559.881C1704.64 560.174 1704.4 560.425 1704.11 560.425H1657.73C1657.47 560.425 1657.25 560.225 1657.23 559.965Z" stroke="black" stroke-width="9"/>
</g>
<defs>
<clipPath id="clip0_12_108">
<rect width="1920" height="1080" fill="white"/>
</clipPath>
</defs>
</svg>
