<svg width="116" height="318" viewBox="0 0 116 318" fill="none" xmlns="http://www.w3.org/2000/svg">
<path d="M81.658 291.248C81.658 305.692 70.9722 317.414 57.7876 317.414C44.6031 317.414 33.9376 305.692 33.9376 291.248C33.9376 276.804 44.6234 265.123 57.7876 265.123C70.9519 265.123 81.658 276.784 81.658 291.248Z" fill="#FFF9CC"/>
<path d="M59.9817 0.604919H55.6342V185.632H59.9817V0.604919Z" fill="#AF91DB"/>
<path d="M63.7806 190.609V184.941C63.8294 183.665 63.3723 182.422 62.5089 181.482C61.6455 180.542 60.4449 179.981 59.1691 179.924H56.3859C55.1142 179.987 53.9176 180.549 53.0583 181.489C52.1989 182.428 51.7439 183.669 51.7946 184.941V190.609C55.6281 189.039 59.9268 189.039 63.7603 190.609H63.7806Z" fill="#B2B2D8"/>
<path d="M75.4212 208.75V226.525L74.6899 226.363C64.4327 224.772 54.0029 224.642 43.7092 225.977L40.9463 226.363L40.1947 226.525V208.75C40.2008 207.791 40.2678 206.834 40.3978 205.886C40.5359 204.868 40.7533 203.862 41.0479 202.879C41.0479 202.757 41.0479 202.635 41.1495 202.513C41.3019 202.03 41.4766 201.556 41.6777 201.091C41.6655 201.01 41.6655 200.928 41.6777 200.847L42.0434 200.014C42.1856 199.71 42.3277 199.405 42.4903 199.12C43.0753 198.04 43.7559 197.014 44.5218 196.053C45.3852 194.986 46.3603 194.012 47.4269 193.148C47.7519 192.904 48.077 192.64 48.4426 192.417C48.7921 192.163 49.1597 191.932 49.5396 191.726C49.9012 191.496 50.273 191.286 50.657 191.096L51.7946 190.608C53.6839 189.835 55.7053 189.434 57.747 189.43C59.8354 189.421 61.9055 189.822 63.8415 190.608C66.4399 191.697 68.7578 193.358 70.6228 195.469C72.4857 197.58 73.8488 200.085 74.6086 202.798C75.1673 204.732 75.4415 206.737 75.4212 208.75Z" fill="#AF91DB"/>
<path d="M111.318 291.248H4.31805L7.52786 265.509C9.55938 249.4 24.0035 229.999 40.2353 226.505L40.987 226.343L43.892 225.936C54.141 224.638 64.5201 224.776 74.7305 226.343L75.4212 226.525C91.6734 230.02 106.178 249.42 108.149 265.53L111.318 291.248Z" fill="#AF91DB"/>
<path d="M75.4212 208.75H40.1743C40.1804 207.791 40.2475 206.834 40.3775 205.886C40.5157 204.868 40.733 203.862 41.0276 202.879H74.5477C75.1185 204.785 75.4131 206.761 75.4212 208.75ZM75.4212 220.837V226.525L74.6899 226.363C64.4327 224.772 54.0029 224.642 43.7092 225.977L40.9463 226.363L40.1947 226.525V221.101C46.2892 220.492 52.7291 220.167 59.2503 220.167C64.7354 220.167 70.1393 220.431 75.4212 220.837Z" fill="#B2B2D8"/>
<path d="M111.318 287.185H4.27743H0.133148V294.824H115.462V287.185H111.318Z" fill="#B2B2D8"/>
</svg>
