<svg width="637" height="397" viewBox="0 0 637 397" fill="none" xmlns="http://www.w3.org/2000/svg">
<path d="M29.4728 35.036C32.0979 46.4529 37.7061 56.9678 45.7249 65.5082C49.8197 54.5382 50.9272 42.6764 48.9347 31.1356C46.3252 19.7126 40.7148 9.19359 32.6826 0.663422C28.5801 11.6334 27.4723 23.4972 29.4728 35.036Z" fill="#56AF96"/>
<path d="M71.2205 41.679C67.4012 59.5966 52.5914 72.1511 52.5914 72.1511C52.5914 72.1511 43.9981 55.6149 47.8377 37.616C51.6773 19.6171 66.4667 7.14386 66.4667 7.14386C66.4667 7.14386 75.06 23.7613 71.2205 41.679Z" fill="#6FDCBF"/>
<path d="M10.0311 69.6321C20.9607 94.3348 40.3414 122.958 40.3414 122.958C40.3414 122.958 42.0073 83.1008 31.0777 58.398C24.1535 43.1822 13.7749 29.7928 0.767398 19.2921C0.200846 36.5434 3.36054 53.7134 10.0311 69.6321Z" fill="#6FDCBF"/>
<path d="M87.9805 68.9007C78.534 94.2942 59.9456 124.279 59.9456 124.279C59.9456 124.279 56.7967 84.5837 66.2433 59.2715C72.2903 43.5337 81.8835 29.4007 94.2782 17.9716C95.8459 35.2026 93.6984 52.5697 87.9805 68.9007Z" fill="#6FDCBF"/>
<path d="M25.1863 63.6798C30.5901 86.4527 44.6483 116.356 44.6483 116.356C44.6483 116.356 49.9708 80.9067 44.6483 58.1339C41.1278 44.0212 34.4683 30.8816 25.166 19.6983C22.0326 34.1929 22.0395 49.1893 25.1863 63.6798Z" fill="#6FDCBF"/>
<path d="M24.8612 70.7494C29.4525 90.15 42.8808 117.311 42.8808 117.311C42.8808 117.311 48.8332 84.604 44.2419 65.2034C41.1233 53.0511 34.916 41.9105 26.2224 32.8623C22.6946 45.1934 22.2274 58.1989 24.8612 70.7494Z" fill="#52B292"/>
<path d="M47.4924 68.3319C44.9936 91.9783 55.7403 129.053 55.7403 129.053C55.7403 129.053 70.5907 95.2693 73.1098 71.6229C75.6289 47.9765 64.8618 27.1742 64.8618 27.1742C64.8618 27.1742 50.0318 44.6855 47.4924 68.3319Z" fill="#56AF96"/>
<path d="M38.6349 89.0326C38.9533 100.74 42.3743 112.153 48.5487 122.105C54.7347 112.157 58.1633 100.744 58.4829 89.0326C58.4829 70.7494 48.5487 41.7399 48.5487 41.7399C48.5487 41.7399 38.6349 70.7697 38.6349 89.0326Z" fill="#A4D3BA"/>
<path d="M71.3627 100.754C71.1799 99.1088 24.1502 92.2221 24.3331 93.9082L30.0619 145.041C30.0995 145.386 30.2663 145.707 30.5292 145.934C30.6401 146.095 30.789 146.225 30.9629 146.314C31.1366 146.402 31.3296 146.446 31.5246 146.442H68.5795C69.4937 146.442 69.8797 146.239 70.1235 145.609C70.3065 145.069 70.4292 144.51 70.4891 143.943C71.9248 129.587 73.0895 115.192 73.9834 100.754C74.1662 99.0681 71.4643 99.0885 71.3627 100.754Z" fill="#AD998A"/>
<path d="M79.3263 91.9986C78.3105 90.9016 76.1977 90.6985 72.1347 90.6985H27.8679C23.8048 90.6985 21.7733 90.8203 20.8185 91.8564C19.8637 92.8924 19.9856 94.1317 20.0872 96.3866V101.039C20.0872 104.187 20.0872 105.914 21.1029 106.971C22.1187 108.027 24.2721 108.149 27.8069 108.149H72.1347C76.1977 108.149 78.087 108.149 79.1231 107.032C80.1592 105.914 79.9763 104.736 79.8951 102.258V99.4338C79.8951 98.3571 79.8951 97.1179 80.017 96.2038C80.1185 94.2332 80.2608 92.9331 79.3263 91.9986Z" fill="#C1AB9D"/>
<path opacity="0.49" d="M23.236 92.9534C22.6008 95.1901 22.4281 97.5344 22.7281 99.8401C22.8703 100.897 24.5362 100.917 24.394 99.8401C24.1047 97.6787 24.2566 95.4805 24.8409 93.38C24.8785 93.1748 24.837 92.9615 24.7249 92.7848C24.6128 92.608 24.4381 92.4801 24.2355 92.4252C24.033 92.3724 23.8176 92.3968 23.6324 92.4943C23.4473 92.5918 23.3057 92.7564 23.236 92.9534ZM24.333 103.192C24.5539 103.192 24.7657 103.105 24.922 102.948C25.0782 102.792 25.1659 102.581 25.1659 102.359C25.1659 102.138 25.0782 101.926 24.922 101.77C24.7657 101.614 24.5539 101.526 24.333 101.526C24.112 101.526 23.9003 101.614 23.7441 101.77C23.5879 101.926 23.5001 102.138 23.5001 102.359C23.5001 102.581 23.5879 102.792 23.7441 102.948C23.9003 103.105 24.112 103.192 24.333 103.192ZM66.6699 120.663C66.3245 122.166 65.9182 124.421 67.8278 125.051C69.7375 125.681 70.7329 124.055 70.8345 122.552C70.968 121.778 70.8408 120.982 70.4733 120.287C70.1058 119.592 69.5183 119.038 68.803 118.713C68.3686 118.623 67.9178 118.668 67.5085 118.838C67.0991 119.007 66.7505 119.298 66.5074 119.667C66.3444 119.933 66.2213 120.22 66.1417 120.521C66.0198 121.028 66.1417 121.475 66.1417 121.963C66.0505 122.387 66.1208 122.83 66.3385 123.206C66.5563 123.582 66.9061 123.862 67.32 123.994C67.7454 124.1 68.1953 124.037 68.5746 123.818C68.9537 123.598 69.2324 123.239 69.3515 122.816C69.3724 122.471 69.3724 122.125 69.3515 121.78V121.394C69.3515 120.886 69.128 121.049 68.7217 121.922H67.8278C67.4825 121.8 67.259 121.435 67.5028 122.085C67.7466 122.735 66.8527 122.085 68.0513 121.841H68.9452C69.4327 121.943 69.6156 123.527 69.7578 122.349C69.7824 122.073 69.837 121.8 69.9203 121.536C70.4079 119.505 67.1778 118.55 66.6902 120.642L66.6699 120.663ZM69.9 118.123C70.3418 118.123 70.7654 117.949 71.0779 117.636C71.3903 117.323 71.5658 116.9 71.5658 116.458C71.5658 116.017 71.3903 115.592 71.0779 115.279C70.7654 114.966 70.3418 114.792 69.9 114.792C69.4581 114.792 69.0344 114.966 68.7221 115.279C68.4097 115.592 68.2341 116.017 68.2341 116.458C68.2341 116.9 68.4097 117.323 68.7221 117.636C69.0344 117.949 69.4581 118.123 69.9 118.123ZM69.3515 128.707C69.7933 128.707 70.2169 128.533 70.5294 128.22C70.8418 127.907 71.0173 127.484 71.0173 127.042C71.0173 126.601 70.8418 126.176 70.5294 125.863C70.2169 125.551 69.7933 125.376 69.3515 125.376C68.9096 125.376 68.4859 125.551 68.1736 125.863C67.8612 126.176 67.6856 126.601 67.6856 127.042C67.6856 127.484 67.8612 127.907 68.1736 128.22C68.4859 128.533 68.9096 128.707 69.3515 128.707Z" fill="white"/>
<path d="M126.336 146.97L145.879 76.8641C146.008 76.4761 146.051 76.0657 146.006 75.6594C145.961 75.2511 145.829 74.859 145.619 74.5096C145.409 74.1582 145.126 73.8555 144.788 73.6259C144.451 73.3944 144.068 73.2379 143.664 73.1668L130.581 69.1039C130.208 68.9373 129.804 68.854 129.395 68.8601C128.986 68.8641 128.584 68.9576 128.215 69.1344C127.846 69.3091 127.519 69.563 127.258 69.8779C126.997 70.1907 126.807 70.5584 126.701 70.9525L107.158 141.079C107.079 141.301 107.09 141.544 107.189 141.758C107.288 141.969 107.466 142.135 107.686 142.217C107.798 142.245 107.915 142.249 108.029 142.231C108.142 142.213 108.252 142.174 108.35 142.113C108.448 142.052 108.533 141.973 108.601 141.88C108.668 141.786 108.716 141.68 108.743 141.567L108.986 140.815L124.954 145.751" fill="#6FDCBF"/>
<path d="M131.049 71.9074C130.335 71.7367 129.582 71.8525 128.954 72.2344C128.327 72.6143 127.874 73.2278 127.697 73.9388L109.129 140.876L116.828 143.293L136.249 73.5528L131.049 71.9074Z" fill="#D2D8DB"/>
<path d="M124.954 145.751L143.502 78.8143C143.753 78.1236 143.724 77.3639 143.42 76.6955C143.116 76.0251 142.562 75.503 141.877 75.2389L136.31 73.5528L116.828 143.293L124.954 145.751Z" fill="#E2E6E8"/>
<path d="M129.891 103.986C129.891 103.986 134.137 83.8341 138.423 75.5457C137.306 80.7057 137.143 83.1231 129.891 103.986Z" fill="#A3AEB2"/>
<path d="M134.157 89.1545L140.353 91.0438L139.906 87.1434L142.669 84.2383L136.249 82.2881L134.157 89.1545Z" fill="#AF91DB"/>
<path d="M167.799 147.661V46.5748H190.572V147.661" fill="#A3D9E8"/>
<path d="M190.572 59.4138H167.819V63.0501H190.572V59.4138Z" fill="#6FDCBF"/>
<path d="M190.572 64.6956H167.819V68.3319H190.572V64.6956Z" fill="#6FDCBF"/>
<path d="M146.041 147.661V55.432H167.555V147.661" fill="#DD859C"/>
<path opacity="0.54" d="M167.555 75.5843H146.041V78.8753H167.555V75.5843Z" fill="white"/>
<path opacity="0.54" d="M167.555 80.3583H146.041V83.6493H167.555V80.3583Z" fill="white"/>
<path fill-rule="evenodd" clip-rule="evenodd" d="M580.563 375.532H551.126C547.266 362.226 584.321 361.86 580.563 375.532Z" fill="#BABCBE"/>
<path fill-rule="evenodd" clip-rule="evenodd" d="M551.187 371.591C554.153 363.241 577.333 362.734 580.482 371.591C575.846 373.549 570.866 374.557 565.834 374.557C560.802 374.557 555.823 373.549 551.187 371.591Z" fill="#E5E6E7"/>
<path fill-rule="evenodd" clip-rule="evenodd" d="M567.256 365.659C567.256 365.708 567.236 365.754 567.204 365.789C567.169 365.823 567.122 365.842 567.074 365.842H564.595C564.546 365.842 564.5 365.823 564.465 365.789C564.431 365.754 564.412 365.708 564.412 365.659V364.907C564.412 364.684 564.941 364.501 565.57 364.501H566.098C566.728 364.501 567.256 364.684 567.256 364.907V365.659Z" fill="#424243"/>
<path d="M591.147 375.451H540.522C540.184 375.451 539.912 375.725 539.912 376.06V376.487C539.912 376.824 540.184 377.096 540.522 377.096H591.147C591.484 377.096 591.757 376.824 591.757 376.487V376.06C591.757 375.725 591.484 375.451 591.147 375.451Z" fill="#B2B2D8"/>
<path d="M210.258 145.711H7.45111V154.304H210.258V145.711Z" fill="#404040"/>
<path d="M626.394 376.263H73.8208C68.211 376.263 63.6632 380.81 63.6632 386.421C63.6632 392.029 68.211 396.578 73.8208 396.578H626.394C632.003 396.578 636.552 392.029 636.552 386.421C636.552 380.81 632.003 376.263 626.394 376.263Z" fill="#404040"/>
<path d="M171.273 339.087C171.273 339.556 171.086 340.005 170.755 340.336C170.424 340.668 169.974 340.854 169.505 340.854C169.036 340.854 168.587 340.668 168.256 340.336C167.924 340.005 167.738 339.556 167.738 339.087C167.69 338.451 167.502 337.834 167.189 337.279C166.744 336.401 166.114 335.632 165.341 335.024C164.672 334.488 163.841 334.195 162.984 334.191C162.473 334.222 161.975 334.36 161.521 334.598L161.196 334.78C160.638 335.142 160.167 335.623 159.816 336.19C159.465 336.755 159.243 337.391 159.165 338.051C158.96 339.991 159.372 341.945 160.343 343.638C160.506 343.963 160.709 344.328 160.932 344.694C162.523 346.935 164.37 348.98 166.438 350.788C170.074 354.283 173.853 357.919 174.97 362.977C175.047 363.211 175.073 363.459 175.049 363.705C175.024 363.948 174.948 364.186 174.827 364.399C174.705 364.615 174.54 364.8 174.342 364.946C174.144 365.094 173.918 365.198 173.678 365.25C173.438 365.305 173.189 365.307 172.947 365.261C172.706 365.212 172.477 365.114 172.275 364.974C172.074 364.832 171.904 364.651 171.777 364.44C171.65 364.229 171.568 363.993 171.537 363.749C170.643 359.788 167.25 356.538 164 353.389C161.689 351.363 159.642 349.058 157.905 346.522C157.662 346.116 157.418 345.689 157.194 345.242C155.881 342.882 155.348 340.166 155.671 337.482C155.839 336.308 156.263 335.185 156.913 334.191C157.562 333.198 158.421 332.359 159.429 331.733L159.998 331.428C160.917 330.951 161.929 330.681 162.964 330.636C164.618 330.62 166.23 331.164 167.535 332.18C168.737 333.108 169.716 334.297 170.399 335.654C170.939 336.72 171.238 337.893 171.273 339.087Z" fill="#CC7D96"/>
<path fill-rule="evenodd" clip-rule="evenodd" d="M205.28 328.706C205.443 338.234 203.107 368.158 195.448 375.877H179.033C171.374 368.158 169.038 338.234 169.201 328.706H205.28Z" fill="#DD859C"/>
<path d="M470.576 371.022L465.559 339.047H403.699L398.681 371.022H470.576Z" fill="#D2CFD6"/>
<path d="M239.918 342.744C238.138 342.74 236.432 342.029 235.176 340.767C233.919 339.508 233.214 337.801 233.214 336.02V297.909H636.044V336.02C636.038 337.803 635.329 339.51 634.069 340.769C632.807 342.029 631.101 342.74 629.319 342.744H239.918Z" fill="white"/>
<path d="M635.536 298.458V336.06C635.536 337.71 634.882 339.29 633.715 340.456C632.549 341.622 630.969 342.277 629.319 342.277H239.918C238.291 342.246 236.74 341.576 235.601 340.414C234.461 339.252 233.823 337.69 233.823 336.06V298.458H635.536ZM636.551 297.442H232.625V336.04C232.625 337.956 233.384 339.792 234.735 341.147C236.088 342.504 237.923 343.268 239.837 343.272H629.319C631.237 343.272 633.078 342.51 634.433 341.155C635.79 339.798 636.551 337.96 636.551 336.04V297.442Z" fill="#404040"/>
<path d="M625.439 79.5456H243.818C242.364 79.5416 240.923 79.8219 239.579 80.3725C238.234 80.925 237.009 81.7356 235.977 82.7594C234.945 83.7853 234.126 85.0022 233.563 86.343C233.002 87.6838 232.712 89.1241 232.706 90.5766V300.225H636.551V90.5766C636.545 89.1241 636.255 87.6838 635.692 86.343C635.131 85.0022 634.313 83.7853 633.281 82.7594C632.249 81.7356 631.024 80.925 629.679 80.3725C628.334 79.8219 626.894 79.5416 625.439 79.5456Z" fill="#404040"/>
<path d="M622.026 92.73H247.638V287.224H622.026V92.73Z" fill="#E3D1E5"/>
<path d="M499.912 371.022H369.346V375.816H499.912V371.022Z" fill="#EAEAEA"/>
<path d="M434.619 329.824C438.927 329.824 442.42 326.36 442.42 322.084C442.42 317.81 438.927 314.344 434.619 314.344C430.31 314.344 426.818 317.81 426.818 322.084C426.818 326.36 430.31 329.824 434.619 329.824Z" fill="#333333"/>
<mask id="mask0_2_107" style="mask-type:luminance" maskUnits="userSpaceOnUse" x="247" y="92" width="376" height="196">
<path d="M622.026 92.73H247.638V287.224H622.026V92.73Z" fill="white"/>
</mask>
<g mask="url(#mask0_2_107)">
<path d="M622.168 92.73H379.3V287.224H622.168V92.73Z" fill="#565266"/>
<path d="M622.168 92.73H379.3V105.833H622.168V92.73Z" fill="#B0BAEA"/>
<path d="M391.042 102.075C392.613 102.075 393.887 100.819 393.887 99.2713C393.887 97.7233 392.613 96.4679 391.042 96.4679C389.472 96.4679 388.198 97.7233 388.198 99.2713C388.198 100.819 389.472 102.075 391.042 102.075Z" fill="#E84D4D"/>
<path d="M401.627 102.075C403.197 102.075 404.471 100.819 404.471 99.2713C404.471 97.7233 403.197 96.4679 401.627 96.4679C400.056 96.4679 398.783 97.7233 398.783 99.2713C398.783 100.819 400.056 102.075 401.627 102.075Z" fill="#F2DD77"/>
<path d="M411.683 102.075C413.253 102.075 414.527 100.819 414.527 99.2713C414.527 97.7233 413.253 96.4679 411.683 96.4679C410.112 96.4679 408.839 97.7233 408.839 99.2713C408.839 100.819 410.112 102.075 411.683 102.075Z" fill="#4EB785"/>
<path d="M393.277 116.866C395.654 116.724 396.304 116.541 396.304 116.114C396.304 115.688 395.634 115.241 393.785 114.997V114.306L396.04 112.559H393.399V111.178H397.564L397.686 112.559L395.532 114.182C397.218 114.548 397.868 115.22 397.868 116.013C397.868 117.232 396.507 118.146 393.379 118.308L393.277 116.866ZM399.473 118.146L399.331 116.907C401.363 115.485 402.378 114.55 402.378 113.636C402.378 112.722 401.728 112.62 399.534 112.559L399.676 111.097C402.988 111.097 403.963 112.031 403.963 113.128C403.963 114.225 402.947 115.444 401.281 116.703H404.105V118.064L399.473 118.146ZM393.277 130.375C395.654 130.233 396.304 130.03 396.304 129.603C396.304 129.177 395.634 128.748 393.785 128.504V127.816L396.04 126.048H393.399V124.685H397.564L397.686 126.048L395.532 127.694C397.218 128.039 397.868 128.728 397.868 129.5C397.868 130.739 396.507 131.655 393.379 131.818L393.277 130.375ZM399.473 131.655L399.331 130.416C401.363 128.974 402.378 128.059 402.378 127.145C402.378 126.231 401.728 126.129 399.534 126.069L399.676 124.586C402.988 124.586 403.963 125.54 403.963 126.617C403.963 127.694 402.947 128.951 401.281 130.211H404.105V131.574L399.473 131.655ZM393.277 143.885C395.654 143.742 396.304 143.539 396.304 143.113C396.304 142.686 395.634 142.257 393.785 142.014V141.323L396.04 139.558H393.399V138.194H397.564L397.686 139.558L395.532 141.201C397.218 141.546 397.868 142.239 397.868 143.011C397.868 144.25 396.507 145.162 393.379 145.325L393.277 143.885ZM403.739 144.067V145.264H402.256V144.067H399.331C399.309 142.095 399.534 140.13 400.001 138.215L401.708 138.318L400.591 142.704H402.256V140.411L403.739 140.246V142.605H404.491L404.349 143.966L403.739 144.067ZM393.277 157.394C395.654 157.231 396.304 157.046 396.304 156.62C396.304 156.193 395.634 155.748 393.785 155.525V154.814L396.04 153.065H393.399V151.685H397.564L397.686 153.065L395.532 154.71C397.218 155.056 397.868 155.748 397.868 156.52C397.868 157.739 396.507 158.674 393.379 158.816L393.277 157.394ZM399.555 158.834V157.372C401.931 157.189 402.663 156.967 402.663 156.378C402.663 155.789 401.87 155.523 399.737 155.279L399.961 151.685H404.024L403.902 153.087H401.241V154.286C403.496 154.631 404.166 155.423 404.166 156.317C404.085 157.597 402.744 158.651 399.555 158.834ZM393.277 170.883C395.654 170.741 396.304 170.556 396.304 170.129C396.304 169.703 395.634 169.258 393.785 169.014V168.323L396.04 166.574H393.399V165.193H397.564L397.686 166.574L395.532 168.222C397.218 168.567 397.868 169.258 397.868 170.03C397.868 171.249 396.507 172.163 393.379 172.325L393.277 170.883ZM399.209 169.56C399.209 167.529 400.347 166.048 402.927 164.951L403.577 166.269C401.87 166.899 401.159 167.509 400.875 168.301C402.46 167.387 404.268 168.14 404.268 169.928C404.264 170.273 404.19 170.615 404.05 170.93C403.91 171.247 403.707 171.531 403.453 171.767C403.199 172 402.898 172.181 402.573 172.297C402.246 172.411 401.901 172.457 401.556 172.435C401.21 172.411 400.873 172.317 400.566 172.159C400.259 172 399.987 171.781 399.768 171.515C399.546 171.247 399.384 170.938 399.288 170.605C399.193 170.273 399.167 169.924 399.209 169.583V169.56ZM402.785 170.03C402.785 169.055 401.952 168.669 400.753 169.217V169.4C400.753 170.599 401.261 171.084 401.891 171.084C402.521 171.084 402.785 170.741 402.785 170.03ZM393.277 184.392C395.654 184.25 396.304 184.067 396.304 183.641C396.304 183.214 395.634 182.765 393.785 182.521V181.831L396.04 180.085H393.399V178.702H397.564L397.686 180.085L395.532 181.711C397.218 182.076 397.868 182.745 397.868 183.537C397.868 184.756 396.507 185.672 393.379 185.835L393.277 184.392ZM400.001 185.611C400.686 183.71 401.578 181.889 402.663 180.187H399.412L399.534 178.763H404.268V180.146C403.191 181.944 402.305 183.85 401.627 185.835L400.001 185.611ZM393.277 197.902C395.654 197.759 396.304 197.554 396.304 197.128C396.304 196.701 395.634 196.274 393.785 196.031V195.34L396.04 193.572H393.399V192.213H397.564L397.686 193.572L395.532 195.218C397.218 195.563 397.868 196.256 397.868 197.028C397.868 198.267 396.507 199.179 393.379 199.342L393.277 197.902ZM399.209 197.554C399.581 197.44 399.908 197.211 400.144 196.9C400.379 196.589 400.511 196.213 400.524 195.823C400.534 195.435 400.424 195.051 400.207 194.728C399.989 194.405 399.676 194.158 399.311 194.019C399.311 193.044 400.164 191.988 401.789 191.988C403.069 191.988 404.085 192.658 404.085 193.694C404.06 194.072 403.932 194.436 403.715 194.745C403.496 195.053 403.195 195.295 402.846 195.443C403.577 195.87 404.227 196.396 404.227 197.249C404.227 198.103 403.232 199.281 401.586 199.281C399.941 199.281 399.209 198.631 399.209 197.554ZM402.683 197.554C402.683 197.046 402.033 196.662 401.302 196.256C401.129 196.374 400.985 196.53 400.883 196.715C400.782 196.898 400.723 197.101 400.712 197.31C400.712 197.818 401.017 198.204 401.728 198.204C402.439 198.204 402.703 197.859 402.703 197.493L402.683 197.554ZM402.033 195.096C402.191 194.986 402.323 194.842 402.419 194.674C402.514 194.503 402.569 194.316 402.581 194.123C402.581 193.656 402.338 193.308 401.688 193.308C401.038 193.308 400.834 193.595 400.834 193.9C400.834 194.204 401.403 194.69 402.053 195.035L402.033 195.096ZM393.277 211.409C395.654 211.267 396.304 211.063 396.304 210.637C396.304 210.21 395.634 209.765 393.785 209.542V208.831L396.04 207.082H393.399V205.723H397.564L397.686 207.082L395.532 208.727C397.218 209.073 397.868 209.765 397.868 210.537C397.868 211.756 396.507 212.689 393.379 212.851L393.277 211.409ZM399.88 211.614C401.586 210.964 402.297 210.375 402.581 209.583C400.997 210.476 399.189 209.745 399.189 207.957C399.193 207.61 399.266 207.269 399.406 206.954C399.546 206.637 399.75 206.353 400.004 206.117C400.257 205.883 400.558 205.702 400.883 205.587C401.21 205.473 401.556 205.426 401.901 205.448C402.246 205.473 402.584 205.566 402.89 205.725C403.197 205.883 403.469 206.103 403.689 206.369C403.91 206.637 404.073 206.946 404.168 207.279C404.264 207.61 404.29 207.959 404.247 208.301C404.247 210.332 403.11 211.817 400.53 212.914L399.88 211.614ZM402.744 208.666V208.483C402.744 207.285 402.236 206.799 401.606 206.799C400.977 206.799 400.672 207.145 400.672 207.835C400.672 208.831 401.505 209.195 402.744 208.666ZM397.503 224.999V226.198H396.02V224.999H393.115C393.092 223.029 393.318 221.064 393.785 219.149L395.491 219.252L394.374 223.64H396.04V221.444L397.523 221.284V223.64H398.254L398.132 224.999H397.503ZM399.087 222.826C399.087 220.571 400.123 219.07 401.81 219.07C403.496 219.07 404.369 220.388 404.369 222.582C404.369 224.776 403.333 226.342 401.627 226.342C399.92 226.342 399.087 225.02 399.087 222.826ZM400.611 222.686L402.744 221.589C402.581 220.817 402.236 220.347 401.708 220.347C401.18 220.347 400.611 221.121 400.611 222.543V222.686ZM402.846 222.868L400.814 223.945C400.977 224.697 401.302 225.144 401.83 225.144C402.358 225.144 402.846 224.29 402.846 222.868ZM397.503 238.509V239.689H396.02V238.509H393.115C393.09 236.538 393.316 234.574 393.785 232.658L395.491 232.762L394.374 237.15H396.04V234.954L397.523 234.793V237.15H398.254L398.132 238.509H397.503ZM399.392 239.689V238.369H401.241V234.793H399.595V233.633L401.241 233.452V232.617L402.785 232.498V238.348H404.45L404.329 239.669L399.392 239.689ZM397.503 252V253.198H396.02V252H393.115C393.09 250.035 393.316 248.075 393.785 246.169L395.491 246.271L394.374 250.637H396.04V248.465L397.523 248.303V250.637H398.254L398.132 252H397.503ZM399.473 253.198L399.331 251.957C401.363 250.515 402.378 249.603 402.378 248.688C402.378 247.774 401.728 247.673 399.534 247.612L399.676 246.127C402.988 246.127 403.963 247.084 403.963 248.262C403.963 249.44 402.947 250.576 401.281 251.835H404.105V253.198H399.473ZM397.503 265.509V266.706H396.02V265.509H393.115C393.092 263.537 393.318 261.572 393.785 259.656L395.491 259.76L394.374 264.146H396.04V261.893L397.523 261.749V264.085H398.254L398.132 265.448L397.503 265.509ZM399.514 265.426C401.891 265.284 402.541 265.08 402.541 264.654C402.541 264.227 401.87 263.803 400.022 263.559V262.868L402.277 261.099H399.636V259.74H403.699L403.821 261.099L401.667 262.746C403.353 263.092 404.004 263.782 404.004 264.554C404.004 265.794 402.642 266.708 399.514 266.87V265.426ZM397.503 279.016V280.176H396.02V278.978H393.115C393.092 277.005 393.318 275.041 393.785 273.127L395.491 273.227L394.374 277.615H396.04V275.423L397.523 275.258V277.615H398.254L398.132 278.978L397.503 279.016ZM403.739 279.016V280.176H402.256V278.978H399.331C399.309 277.005 399.534 275.041 400.001 273.127L401.708 273.227L400.591 277.615H402.256V275.423L403.739 275.258V277.615H404.491L404.349 278.978L403.739 279.016Z" fill="#706D84"/>
<path opacity="0.39" d="M558.683 112.234H414.527V118.471H558.683V112.234Z" fill="#A3848D"/>
<path opacity="0.39" d="M568.028 125.62H414.527V131.856H568.028V125.62Z" fill="#A58492"/>
<path opacity="0.39" d="M539.628 139.131H414.527V145.368H539.628V139.131Z" fill="#A284A3"/>
<path opacity="0.39" d="M521.547 152.762H414.527V158.999H521.547V152.762Z" fill="#9084A0"/>
<path opacity="0.39" d="M503.264 166.127H414.527V172.364H503.264V166.127Z" fill="#83859E"/>
<path opacity="0.39" d="M562.99 179.74H414.527V185.977H562.99V179.74Z" fill="#83929B"/>
<path opacity="0.39" d="M588.669 193.674H414.527V199.911H588.669V193.674Z" fill="#829995"/>
<path opacity="0.39" d="M559.862 206.757H414.527V212.993H559.862V206.757Z" fill="#84998B"/>
<path opacity="0.39" d="M551.695 220.268H414.527V226.505H551.695V220.268Z" fill="#899985"/>
<path opacity="0.39" d="M479.739 233.656H414.527V239.892H479.739V233.656Z" fill="#979987"/>
<path opacity="0.39" d="M604.433 247.163H414.527V253.399H604.433V247.163Z" fill="#999488"/>
<path opacity="0.39" d="M551.695 260.672H414.527V266.909H551.695V260.672Z" fill="#998E8A"/>
<path opacity="0.39" d="M515.92 274.184H414.283V280.42H515.92V274.184Z" fill="#998C8C"/>
<path d="M613.352 201.619H514.335V279.973H613.352V201.619Z" fill="#333333"/>
<path d="M515.676 193.615H611.604C612.068 193.615 612.513 193.798 612.84 194.125C613.167 194.454 613.352 194.899 613.352 195.362V204.26H514.152V195.139C514.152 194.734 514.313 194.346 514.599 194.06C514.884 193.776 515.272 193.615 515.676 193.615Z" fill="#D3D3D3"/>
<path d="M519.861 201.599C521.027 201.599 521.974 200.652 521.974 199.486C521.974 198.318 521.027 197.373 519.861 197.373C518.695 197.373 517.748 198.318 517.748 199.486C517.748 200.652 518.695 201.599 519.861 201.599Z" fill="#E84D4D"/>
<path d="M527.764 201.599C528.93 201.599 529.876 200.652 529.876 199.486C529.876 198.318 528.93 197.373 527.764 197.373C526.598 197.373 525.651 198.318 525.651 199.486C525.651 200.652 526.598 201.599 527.764 201.599Z" fill="#F2DD77"/>
<path d="M535.301 201.599C536.467 201.599 537.413 200.652 537.413 199.486C537.413 198.318 536.467 197.373 535.301 197.373C534.134 197.373 533.188 198.318 533.188 199.486C533.188 200.652 534.134 201.599 535.301 201.599Z" fill="#4EB785"/>
<path d="M523.355 219.575C523.138 219.575 522.929 219.496 522.766 219.352C522.685 219.283 522.62 219.195 522.573 219.096C522.528 218.998 522.506 218.893 522.506 218.783C522.506 218.675 522.528 218.57 522.573 218.47C522.62 218.373 522.685 218.285 522.766 218.214L525.529 215.614L522.766 212.993C522.685 212.926 522.62 212.841 522.575 212.744C522.53 212.648 522.506 212.542 522.506 212.435C522.506 212.329 522.53 212.223 522.575 212.128C522.62 212.03 522.685 211.945 522.766 211.876C522.843 211.799 522.935 211.738 523.036 211.695C523.138 211.655 523.246 211.632 523.355 211.632C523.465 211.632 523.573 211.655 523.674 211.695C523.776 211.738 523.867 211.799 523.944 211.876L527.317 215.045C527.396 215.116 527.459 215.206 527.502 215.303C527.544 215.401 527.565 215.508 527.56 215.614C527.56 215.718 527.54 215.821 527.497 215.915C527.455 216.01 527.394 216.093 527.317 216.162L523.944 219.352C523.78 219.494 523.571 219.571 523.355 219.575Z" fill="#83E5AB"/>
<mask id="mask1_2_107" style="mask-type:luminance" maskUnits="userSpaceOnUse" x="258" y="107" width="108" height="168">
<path d="M365.405 107.907H258.994V274.163H365.405V107.907Z" fill="white"/>
</mask>
<g mask="url(#mask1_2_107)">
<path d="M358.132 -196.953H266.043C262.037 -196.953 258.791 -193.706 258.791 -189.7V287.677C258.791 291.681 262.037 294.929 266.043 294.929H358.132C362.138 294.929 365.384 291.681 365.384 287.677V-189.7C365.384 -193.706 362.138 -196.953 358.132 -196.953Z" fill="#F0F0F2"/>
<path d="M346.796 47.6576H277.42C273.808 47.6576 270.878 50.587 270.878 54.1989V159.876C270.878 163.488 273.808 166.418 277.42 166.418H346.796C350.408 166.418 353.338 163.488 353.338 159.876V54.1989C353.338 50.587 350.408 47.6576 346.796 47.6576Z" fill="#C2E7EF"/>
<path opacity="0.81" d="M281.34 149.861H309.558" stroke="white" stroke-width="1.2" stroke-miterlimit="10" stroke-linecap="round"/>
<path opacity="0.81" d="M281.076 142.487H318.314" stroke="white" stroke-width="1.2" stroke-miterlimit="10" stroke-linecap="round"/>
<path opacity="0.81" d="M280.609 134.747H324.449" stroke="white" stroke-width="1.2" stroke-miterlimit="10" stroke-linecap="round"/>
<path opacity="0.68" d="M280.731 127.088H321.605" stroke="white" stroke-width="1.2" stroke-miterlimit="10" stroke-linecap="round"/>
<path opacity="0.68" d="M280.873 119.45H308.807" stroke="white" stroke-width="1.2" stroke-miterlimit="10" stroke-linecap="round"/>
<path d="M346.105 189.556H278.781C275.033 189.556 271.996 192.593 271.996 196.341V264.965C271.996 268.711 275.033 271.75 278.781 271.75H346.105C349.853 271.75 352.891 268.711 352.891 264.965V196.341C352.891 192.593 349.853 189.556 346.105 189.556Z" fill="#D0B6D1"/>
<path opacity="0.81" d="M285.505 258.606H333.429" stroke="white" stroke-width="1.2" stroke-miterlimit="10" stroke-linecap="round"/>
<path opacity="0.81" d="M285.505 249.769H341.941" stroke="white" stroke-width="1.2" stroke-miterlimit="10" stroke-linecap="round"/>
<path opacity="0.81" d="M285.505 240.951H333.429" stroke="white" stroke-width="1.2" stroke-miterlimit="10" stroke-linecap="round"/>
<path opacity="0.81" d="M285.505 231.181H310.33" stroke="white" stroke-width="1.2" stroke-miterlimit="10" stroke-linecap="round"/>
<path opacity="0.81" d="M285.505 223.482H321.829" stroke="white" stroke-width="1.2" stroke-miterlimit="10" stroke-linecap="round"/>
<path opacity="0.81" d="M285.505 215.397H333.429" stroke="white" stroke-width="1.2" stroke-miterlimit="10" stroke-linecap="round"/>
<path opacity="0.81" d="M285.505 206.56H341.941" stroke="white" stroke-width="1.2" stroke-miterlimit="10" stroke-linecap="round"/>
<path opacity="0.81" d="M285.505 197.741H333.429" stroke="white" stroke-width="1.2" stroke-miterlimit="10" stroke-linecap="round"/>
</g>
</g>
<path d="M365.405 99.2714H258.994V107.905H365.405V99.2714Z" fill="#DDDDDD"/>
<path d="M264.946 105.467C265.99 105.467 266.835 104.63 266.835 103.598C266.835 102.566 265.99 101.729 264.946 101.729C263.902 101.729 263.057 102.566 263.057 103.598C263.057 104.63 263.902 105.467 264.946 105.467Z" fill="#AFAFAF"/>
<path d="M271.995 105.467C273.04 105.467 273.885 104.63 273.885 103.598C273.885 102.566 273.04 101.729 271.995 101.729C270.951 101.729 270.106 102.566 270.106 103.598C270.106 104.63 270.951 105.467 271.995 105.467Z" fill="#EAEAEA"/>
<path d="M278.72 105.467C279.764 105.467 280.609 104.63 280.609 103.598C280.609 102.566 279.764 101.729 278.72 101.729C277.676 101.729 276.83 102.566 276.83 103.598C276.83 104.63 277.676 105.467 278.72 105.467Z" fill="#AFAFAF"/>
<path d="M365.384 274.181H258.791V279.971H365.384V274.181Z" fill="#EAEAEA"/>
<path d="M365.405 107.905H357.604V274.161H365.405V107.905Z" fill="white"/>
<path d="M361.87 228.404H361.139C359.995 228.404 359.066 229.333 359.066 230.476V271.451C359.066 272.595 359.995 273.523 361.139 273.523H361.87C363.014 273.523 363.942 272.595 363.942 271.451V230.476C363.942 229.333 363.014 228.404 361.87 228.404Z" fill="#DDDDDD"/>
</svg>
