<svg width="1440" height="1070" viewBox="0 0 1440 1070" fill="none" xmlns="http://www.w3.org/2000/svg">
<g clip-path="url(#clip0_849_10601)">
<rect width="1440" height="1070" fill="white"/>
<rect width="1440" height="1070" fill="url(#paint0_linear_849_10601)"/>
<rect x="430.15" y="197.15" width="629.7" height="735.062" rx="23.85" fill="white" stroke="#B9B9B9" stroke-width="0.3"/>
<g opacity="0.65">
<path d="M593.17 823.31H597.616C599.668 823.31 601.258 823.862 602.386 824.966C603.514 826.07 604.078 827.63 604.078 829.646C604.078 831.662 603.514 833.228 602.386 834.344C601.258 835.448 599.668 836 597.616 836H593.17V823.31ZM597.508 834.452C600.628 834.452 602.188 832.85 602.188 829.646C602.188 826.454 600.628 824.858 597.508 824.858H595.024V834.452H597.508ZM610.135 836.126C609.271 836.126 608.509 835.94 607.849 835.568C607.201 835.196 606.697 834.668 606.337 833.984C605.989 833.288 605.815 832.484 605.815 831.572C605.815 830.648 605.989 829.844 606.337 829.16C606.697 828.464 607.201 827.93 607.849 827.558C608.509 827.186 609.271 827 610.135 827C610.999 827 611.755 827.186 612.403 827.558C613.063 827.93 613.567 828.464 613.915 829.16C614.275 829.844 614.455 830.648 614.455 831.572C614.455 832.484 614.275 833.288 613.915 833.984C613.567 834.668 613.063 835.196 612.403 835.568C611.755 835.94 610.999 836.126 610.135 836.126ZM610.135 834.686C610.939 834.686 611.551 834.422 611.971 833.894C612.403 833.366 612.619 832.592 612.619 831.572C612.619 830.564 612.403 829.796 611.971 829.268C611.539 828.728 610.927 828.458 610.135 828.458C609.343 828.458 608.731 828.728 608.299 829.268C607.867 829.796 607.651 830.564 607.651 831.572C607.651 832.592 607.861 833.366 608.281 833.894C608.713 834.422 609.331 834.686 610.135 834.686ZM621.149 827C623.249 827 624.299 828.182 624.299 830.546V836H622.481V830.636C622.481 829.892 622.331 829.346 622.031 828.998C621.743 828.65 621.287 828.476 620.663 828.476C619.931 828.476 619.343 828.704 618.899 829.16C618.455 829.616 618.233 830.228 618.233 830.996V836H616.415V827.216H618.197V828.62C618.485 828.092 618.887 827.69 619.403 827.414C619.919 827.138 620.501 827 621.149 827ZM628.349 823.31V824.768C628.349 825.332 628.253 825.842 628.061 826.298C627.881 826.754 627.569 827.21 627.125 827.666L626.333 827.036C626.837 826.496 627.125 825.968 627.197 825.452H626.207V823.31H628.349ZM634.876 834.722C635.152 834.722 635.422 834.704 635.686 834.668L635.596 836.054C635.296 836.102 634.984 836.126 634.66 836.126C633.52 836.126 632.668 835.85 632.104 835.298C631.552 834.734 631.276 833.924 631.276 832.868V828.62H629.566V827.216H631.276V824.57H633.094V827.216H635.506V828.62H633.094V832.796C633.094 834.08 633.688 834.722 634.876 834.722ZM646.415 827C648.515 827 649.565 828.182 649.565 830.546V836H647.747V830.636C647.747 829.892 647.597 829.346 647.297 828.998C647.009 828.65 646.553 828.476 645.929 828.476C645.197 828.476 644.609 828.704 644.165 829.16C643.721 829.616 643.499 830.228 643.499 830.996V836H641.681V823.31H643.499V828.548C643.799 828.044 644.201 827.66 644.705 827.396C645.209 827.132 645.779 827 646.415 827ZM655.66 827C656.836 827 657.706 827.294 658.27 827.882C658.846 828.47 659.134 829.364 659.134 830.564V836H657.388V834.542C657.16 835.058 656.818 835.454 656.362 835.73C655.918 835.994 655.396 836.126 654.796 836.126C654.22 836.126 653.692 836.012 653.212 835.784C652.732 835.544 652.354 835.214 652.078 834.794C651.814 834.374 651.682 833.906 651.682 833.39C651.682 832.754 651.844 832.256 652.168 831.896C652.504 831.524 653.05 831.26 653.806 831.104C654.574 830.948 655.624 830.87 656.956 830.87H657.37V830.348C657.37 829.676 657.226 829.19 656.938 828.89C656.662 828.59 656.206 828.44 655.57 828.44C654.574 828.44 653.578 828.746 652.582 829.358L652.042 828.08C652.51 827.756 653.074 827.498 653.734 827.306C654.406 827.102 655.048 827 655.66 827ZM655.12 834.776C655.78 834.776 656.32 834.554 656.74 834.11C657.16 833.654 657.37 833.072 657.37 832.364V831.896H657.046C656.11 831.896 655.39 831.938 654.886 832.022C654.382 832.106 654.022 832.25 653.806 832.454C653.59 832.646 653.482 832.928 653.482 833.3C653.482 833.72 653.632 834.074 653.932 834.362C654.244 834.638 654.64 834.776 655.12 834.776ZM667.784 827.234H669.602L665.786 836H664.148L660.368 827.234H662.276L665.012 833.948L667.784 827.234ZM678.245 831.914H672.035C672.167 833.774 673.091 834.704 674.807 834.704C675.815 834.704 676.727 834.374 677.543 833.714L678.101 834.992C677.693 835.34 677.189 835.616 676.589 835.82C675.989 836.024 675.377 836.126 674.753 836.126C673.349 836.126 672.239 835.724 671.423 834.92C670.619 834.116 670.217 833.006 670.217 831.59C670.217 830.69 670.391 829.892 670.739 829.196C671.099 828.5 671.597 827.96 672.233 827.576C672.881 827.192 673.613 827 674.429 827C675.617 827 676.547 827.384 677.219 828.152C677.903 828.92 678.245 829.982 678.245 831.338V831.914ZM674.465 828.332C673.769 828.332 673.211 828.554 672.791 828.998C672.383 829.43 672.137 830.054 672.053 830.87H676.679C676.643 830.054 676.433 829.43 676.049 828.998C675.677 828.554 675.149 828.332 674.465 828.332ZM688.538 827C689.714 827 690.584 827.294 691.148 827.882C691.724 828.47 692.012 829.364 692.012 830.564V836H690.266V834.542C690.038 835.058 689.696 835.454 689.24 835.73C688.796 835.994 688.274 836.126 687.674 836.126C687.098 836.126 686.57 836.012 686.09 835.784C685.61 835.544 685.232 835.214 684.956 834.794C684.692 834.374 684.56 833.906 684.56 833.39C684.56 832.754 684.722 832.256 685.046 831.896C685.382 831.524 685.928 831.26 686.684 831.104C687.452 830.948 688.502 830.87 689.834 830.87H690.248V830.348C690.248 829.676 690.104 829.19 689.816 828.89C689.54 828.59 689.084 828.44 688.448 828.44C687.452 828.44 686.456 828.746 685.46 829.358L684.92 828.08C685.388 827.756 685.952 827.498 686.612 827.306C687.284 827.102 687.926 827 688.538 827ZM687.998 834.776C688.658 834.776 689.198 834.554 689.618 834.11C690.038 833.654 690.248 833.072 690.248 832.364V831.896H689.924C688.988 831.896 688.268 831.938 687.764 832.022C687.26 832.106 686.9 832.25 686.684 832.454C686.468 832.646 686.36 832.928 686.36 833.3C686.36 833.72 686.51 834.074 686.81 834.362C687.122 834.638 687.518 834.776 687.998 834.776ZM699.168 827C701.268 827 702.318 828.182 702.318 830.546V836H700.5V830.636C700.5 829.892 700.35 829.346 700.05 828.998C699.762 828.65 699.306 828.476 698.682 828.476C697.95 828.476 697.362 828.704 696.918 829.16C696.474 829.616 696.252 830.228 696.252 830.996V836H694.434V827.216H696.216V828.62C696.504 828.092 696.906 827.69 697.422 827.414C697.938 827.138 698.52 827 699.168 827ZM713.095 827C714.271 827 715.141 827.294 715.705 827.882C716.281 828.47 716.569 829.364 716.569 830.564V836H714.823V834.542C714.595 835.058 714.253 835.454 713.797 835.73C713.353 835.994 712.831 836.126 712.231 836.126C711.655 836.126 711.127 836.012 710.647 835.784C710.167 835.544 709.789 835.214 709.513 834.794C709.249 834.374 709.117 833.906 709.117 833.39C709.117 832.754 709.279 832.256 709.603 831.896C709.939 831.524 710.485 831.26 711.241 831.104C712.009 830.948 713.059 830.87 714.391 830.87H714.805V830.348C714.805 829.676 714.661 829.19 714.373 828.89C714.097 828.59 713.641 828.44 713.005 828.44C712.009 828.44 711.013 828.746 710.017 829.358L709.477 828.08C709.945 827.756 710.509 827.498 711.169 827.306C711.841 827.102 712.483 827 713.095 827ZM712.555 834.776C713.215 834.776 713.755 834.554 714.175 834.11C714.595 833.654 714.805 833.072 714.805 832.364V831.896H714.481C713.545 831.896 712.825 831.938 712.321 832.022C711.817 832.106 711.457 832.25 711.241 832.454C711.025 832.646 710.917 832.928 710.917 833.3C710.917 833.72 711.067 834.074 711.367 834.362C711.679 834.638 712.075 834.776 712.555 834.776ZM722.843 836.126C721.955 836.126 721.181 835.94 720.521 835.568C719.873 835.196 719.369 834.674 719.009 834.002C718.661 833.318 718.487 832.52 718.487 831.608C718.487 830.696 718.667 829.892 719.027 829.196C719.399 828.5 719.915 827.96 720.575 827.576C721.247 827.192 722.027 827 722.915 827C723.527 827 724.115 827.102 724.679 827.306C725.255 827.51 725.723 827.786 726.083 828.134L725.525 829.43C724.733 828.782 723.911 828.458 723.059 828.458C722.219 828.458 721.559 828.734 721.079 829.286C720.611 829.826 720.377 830.594 720.377 831.59C720.377 832.574 720.611 833.336 721.079 833.876C721.547 834.404 722.207 834.668 723.059 834.668C723.911 834.668 724.733 834.344 725.525 833.696L726.083 835.01C725.699 835.358 725.219 835.634 724.643 835.838C724.067 836.03 723.467 836.126 722.843 836.126ZM731.48 836.126C730.592 836.126 729.818 835.94 729.158 835.568C728.51 835.196 728.006 834.674 727.646 834.002C727.298 833.318 727.124 832.52 727.124 831.608C727.124 830.696 727.304 829.892 727.664 829.196C728.036 828.5 728.552 827.96 729.212 827.576C729.884 827.192 730.664 827 731.552 827C732.164 827 732.752 827.102 733.316 827.306C733.892 827.51 734.36 827.786 734.72 828.134L734.162 829.43C733.37 828.782 732.548 828.458 731.696 828.458C730.856 828.458 730.196 828.734 729.716 829.286C729.248 829.826 729.014 830.594 729.014 831.59C729.014 832.574 729.248 833.336 729.716 833.876C730.184 834.404 730.844 834.668 731.696 834.668C732.548 834.668 733.37 834.344 734.162 833.696L734.72 835.01C734.336 835.358 733.856 835.634 733.28 835.838C732.704 836.03 732.104 836.126 731.48 836.126ZM740.081 836.126C739.217 836.126 738.455 835.94 737.795 835.568C737.147 835.196 736.643 834.668 736.283 833.984C735.935 833.288 735.761 832.484 735.761 831.572C735.761 830.648 735.935 829.844 736.283 829.16C736.643 828.464 737.147 827.93 737.795 827.558C738.455 827.186 739.217 827 740.081 827C740.945 827 741.701 827.186 742.349 827.558C743.009 827.93 743.513 828.464 743.861 829.16C744.221 829.844 744.401 830.648 744.401 831.572C744.401 832.484 744.221 833.288 743.861 833.984C743.513 834.668 743.009 835.196 742.349 835.568C741.701 835.94 740.945 836.126 740.081 836.126ZM740.081 834.686C740.885 834.686 741.497 834.422 741.917 833.894C742.349 833.366 742.565 832.592 742.565 831.572C742.565 830.564 742.349 829.796 741.917 829.268C741.485 828.728 740.873 828.458 740.081 828.458C739.289 828.458 738.677 828.728 738.245 829.268C737.813 829.796 737.597 830.564 737.597 831.572C737.597 832.592 737.807 833.366 738.227 833.894C738.659 834.422 739.277 834.686 740.081 834.686ZM754.065 827.216V836H752.301V834.578C752.025 835.082 751.641 835.466 751.149 835.73C750.669 835.994 750.129 836.126 749.529 836.126C747.393 836.126 746.325 834.95 746.325 832.598V827.216H748.143V832.58C748.143 833.288 748.287 833.81 748.575 834.146C748.863 834.482 749.307 834.65 749.907 834.65C750.615 834.65 751.179 834.422 751.599 833.966C752.031 833.51 752.247 832.904 752.247 832.148V827.216H754.065ZM761.279 827C763.379 827 764.429 828.182 764.429 830.546V836H762.611V830.636C762.611 829.892 762.461 829.346 762.161 828.998C761.873 828.65 761.417 828.476 760.793 828.476C760.061 828.476 759.473 828.704 759.029 829.16C758.585 829.616 758.363 830.228 758.363 830.996V836H756.545V827.216H758.327V828.62C758.615 828.092 759.017 827.69 759.533 827.414C760.049 827.138 760.631 827 761.279 827ZM771.009 834.722C771.285 834.722 771.555 834.704 771.819 834.668L771.729 836.054C771.429 836.102 771.117 836.126 770.793 836.126C769.653 836.126 768.801 835.85 768.237 835.298C767.685 834.734 767.409 833.924 767.409 832.868V828.62H765.699V827.216H767.409V824.57H769.227V827.216H771.639V828.62H769.227V832.796C769.227 834.08 769.821 834.722 771.009 834.722ZM775.255 831.914C775.255 831.206 775.381 830.606 775.633 830.114C775.885 829.622 776.251 829.082 776.731 828.494C777.115 828.014 777.397 827.612 777.577 827.288C777.757 826.964 777.847 826.598 777.847 826.19C777.847 825.722 777.685 825.356 777.361 825.092C777.037 824.828 776.587 824.696 776.011 824.696C775.471 824.696 774.907 824.816 774.319 825.056C773.743 825.284 773.179 825.62 772.627 826.064L771.961 824.696C772.465 824.228 773.095 823.856 773.851 823.58C774.607 823.304 775.363 823.166 776.119 823.166C777.187 823.166 778.051 823.43 778.711 823.958C779.371 824.486 779.701 825.182 779.701 826.046C779.701 826.478 779.623 826.88 779.467 827.252C779.323 827.624 779.137 827.954 778.909 828.242C778.693 828.518 778.399 828.866 778.027 829.286C777.511 829.85 777.121 830.33 776.857 830.726C776.605 831.122 776.449 831.578 776.389 832.094L776.317 832.49H775.255V831.914ZM774.733 836V833.858H776.875V836H774.733Z" fill="#202224"/>
</g>
<path d="M830.269 836.18C828.949 836.18 827.815 835.916 826.867 835.388C825.931 834.848 825.211 834.092 824.707 833.12C824.203 832.136 823.951 830.978 823.951 829.646C823.951 828.314 824.203 827.162 824.707 826.19C825.211 825.218 825.931 824.468 826.867 823.94C827.815 823.4 828.949 823.13 830.269 823.13C831.121 823.13 831.925 823.262 832.681 823.526C833.449 823.79 834.079 824.168 834.571 824.66L833.815 826.496C833.275 826.04 832.723 825.71 832.159 825.506C831.595 825.29 830.989 825.182 830.341 825.182C829.057 825.182 828.079 825.572 827.407 826.352C826.735 827.12 826.399 828.218 826.399 829.646C826.399 831.074 826.735 832.178 827.407 832.958C828.079 833.738 829.057 834.128 830.341 834.128C830.989 834.128 831.595 834.026 832.159 833.822C832.723 833.606 833.275 833.27 833.815 832.814L834.571 834.65C834.079 835.13 833.449 835.508 832.681 835.784C831.925 836.048 831.121 836.18 830.269 836.18ZM839.683 836.18C838.771 836.18 837.979 835.994 837.307 835.622C836.635 835.25 836.113 834.722 835.741 834.038C835.369 833.342 835.183 832.526 835.183 831.59C835.183 830.654 835.369 829.844 835.741 829.16C836.113 828.476 836.635 827.948 837.307 827.576C837.979 827.204 838.771 827.018 839.683 827.018C840.595 827.018 841.387 827.204 842.059 827.576C842.731 827.948 843.253 828.476 843.625 829.16C843.997 829.844 844.183 830.654 844.183 831.59C844.183 832.526 843.997 833.342 843.625 834.038C843.253 834.722 842.731 835.25 842.059 835.622C841.387 835.994 840.595 836.18 839.683 836.18ZM839.683 834.47C840.355 834.47 840.895 834.23 841.303 833.75C841.711 833.258 841.915 832.538 841.915 831.59C841.915 830.63 841.711 829.916 841.303 829.448C840.895 828.968 840.355 828.728 839.683 828.728C839.011 828.728 838.471 828.968 838.063 829.448C837.655 829.916 837.451 830.63 837.451 831.59C837.451 832.538 837.655 833.258 838.063 833.75C838.471 834.23 839.011 834.47 839.683 834.47ZM845.975 836V827.198H848.171V828.566C848.471 828.062 848.873 827.678 849.377 827.414C849.893 827.15 850.469 827.018 851.105 827.018C853.181 827.018 854.219 828.224 854.219 830.636V836H851.969V830.744C851.969 830.06 851.837 829.562 851.573 829.25C851.321 828.938 850.925 828.782 850.385 828.782C849.725 828.782 849.197 828.992 848.801 829.412C848.417 829.82 848.225 830.366 848.225 831.05V836H845.975ZM860.472 836.18C858.144 836.18 856.98 835.028 856.98 832.724V828.89H855.288V827.198H856.98V824.57H859.23V827.198H861.894V828.89H859.23V832.598C859.23 833.174 859.356 833.606 859.608 833.894C859.86 834.182 860.268 834.326 860.832 834.326C861 834.326 861.174 834.308 861.354 834.272C861.534 834.224 861.72 834.176 861.912 834.128L862.254 835.784C862.038 835.904 861.762 836 861.426 836.072C861.102 836.144 860.784 836.18 860.472 836.18ZM866.182 836.18C865.546 836.18 864.976 836.06 864.472 835.82C863.98 835.568 863.59 835.232 863.302 834.812C863.026 834.392 862.888 833.918 862.888 833.39C862.888 832.742 863.056 832.232 863.392 831.86C863.728 831.476 864.274 831.2 865.03 831.032C865.786 830.864 866.8 830.78 868.072 830.78H868.702V830.402C868.702 829.802 868.57 829.37 868.306 829.106C868.042 828.842 867.598 828.71 866.974 828.71C866.482 828.71 865.978 828.788 865.462 828.944C864.946 829.088 864.424 829.316 863.896 829.628L863.248 828.098C863.56 827.882 863.926 827.696 864.346 827.54C864.778 827.372 865.228 827.246 865.696 827.162C866.176 827.066 866.626 827.018 867.046 827.018C868.33 827.018 869.284 827.318 869.908 827.918C870.532 828.506 870.844 829.424 870.844 830.672V836H868.738V834.596C868.534 835.088 868.21 835.478 867.766 835.766C867.322 836.042 866.794 836.18 866.182 836.18ZM866.65 834.632C867.238 834.632 867.724 834.428 868.108 834.02C868.504 833.612 868.702 833.096 868.702 832.472V832.076H868.09C866.962 832.076 866.176 832.166 865.732 832.346C865.3 832.514 865.084 832.826 865.084 833.282C865.084 833.678 865.222 834.002 865.498 834.254C865.774 834.506 866.158 834.632 866.65 834.632ZM877.132 836.18C876.208 836.18 875.404 835.994 874.72 835.622C874.036 835.238 873.508 834.698 873.136 834.002C872.764 833.306 872.578 832.49 872.578 831.554C872.578 830.618 872.764 829.814 873.136 829.142C873.508 828.458 874.036 827.936 874.72 827.576C875.404 827.204 876.208 827.018 877.132 827.018C877.696 827.018 878.254 827.108 878.806 827.288C879.358 827.468 879.814 827.72 880.174 828.044L879.508 829.61C879.196 829.334 878.842 829.124 878.446 828.98C878.062 828.836 877.69 828.764 877.33 828.764C876.55 828.764 875.944 829.01 875.512 829.502C875.092 829.982 874.882 830.672 874.882 831.572C874.882 832.46 875.092 833.162 875.512 833.678C875.944 834.182 876.55 834.434 877.33 834.434C877.678 834.434 878.05 834.362 878.446 834.218C878.842 834.074 879.196 833.858 879.508 833.57L880.174 835.154C879.814 835.466 879.352 835.718 878.788 835.91C878.236 836.09 877.684 836.18 877.132 836.18ZM885.557 836.18C883.229 836.18 882.065 835.028 882.065 832.724V828.89H880.373V827.198H882.065V824.57H884.315V827.198H886.979V828.89H884.315V832.598C884.315 833.174 884.441 833.606 884.693 833.894C884.945 834.182 885.353 834.326 885.917 834.326C886.085 834.326 886.259 834.308 886.439 834.272C886.619 834.224 886.805 834.176 886.997 834.128L887.339 835.784C887.123 835.904 886.847 836 886.511 836.072C886.187 836.144 885.869 836.18 885.557 836.18ZM898.646 836.18C896.906 836.18 895.574 835.73 894.65 834.83C893.738 833.918 893.282 832.574 893.282 830.798V823.31H895.586V830.78C895.586 831.92 895.844 832.778 896.36 833.354C896.888 833.918 897.65 834.2 898.646 834.2C900.674 834.2 901.688 833.06 901.688 830.78V823.31H903.974V830.798C903.974 832.574 903.524 833.918 902.624 834.83C901.724 835.73 900.398 836.18 898.646 836.18ZM909.603 836.18C908.859 836.18 908.163 836.09 907.515 835.91C906.867 835.73 906.327 835.472 905.895 835.136L906.471 833.66C906.915 833.96 907.413 834.194 907.965 834.362C908.517 834.518 909.069 834.596 909.621 834.596C910.197 834.596 910.623 834.5 910.899 834.308C911.187 834.104 911.331 833.84 911.331 833.516C911.331 833.012 910.959 832.688 910.215 832.544L908.415 832.202C906.891 831.914 906.129 831.122 906.129 829.826C906.129 829.25 906.285 828.752 906.597 828.332C906.921 827.912 907.365 827.588 907.929 827.36C908.493 827.132 909.141 827.018 909.873 827.018C910.497 827.018 911.097 827.108 911.673 827.288C912.249 827.456 912.741 827.714 913.149 828.062L912.537 829.538C912.189 829.25 911.769 829.022 911.277 828.854C910.797 828.686 910.335 828.602 909.891 828.602C909.303 828.602 908.865 828.704 908.577 828.908C908.301 829.112 908.163 829.382 908.163 829.718C908.163 830.246 908.505 830.57 909.189 830.69L910.989 831.032C911.769 831.176 912.357 831.44 912.753 831.824C913.161 832.208 913.365 832.724 913.365 833.372C913.365 834.248 913.023 834.938 912.339 835.442C911.655 835.934 910.743 836.18 909.603 836.18Z" fill="#5A8CFF"/>
<path d="M822.979 837.926H913.995V838.718H822.979V837.926Z" fill="#5A8CFF"/>
<rect opacity="0.9" x="536" y="744" width="418" height="56" rx="8" fill="url(#paint1_linear_849_10601)"/>
<path d="M719.317 779.18C718.237 779.18 717.224 779.033 716.277 778.74C715.33 778.447 714.53 778.033 713.877 777.5L714.737 775.62C715.417 776.14 716.13 776.52 716.877 776.76C717.637 777 718.457 777.12 719.337 777.12C720.31 777.12 721.057 776.953 721.577 776.62C722.11 776.273 722.377 775.793 722.377 775.18C722.377 774.647 722.13 774.24 721.637 773.96C721.157 773.68 720.35 773.413 719.217 773.16C718.044 772.907 717.09 772.613 716.357 772.28C715.624 771.947 715.07 771.52 714.697 771C714.324 770.48 714.137 769.82 714.137 769.02C714.137 768.193 714.364 767.453 714.817 766.8C715.27 766.147 715.91 765.64 716.737 765.28C717.564 764.907 718.517 764.72 719.597 764.72C720.584 764.72 721.524 764.873 722.417 765.18C723.31 765.473 724.044 765.88 724.617 766.4L723.757 768.28C722.504 767.28 721.117 766.78 719.597 766.78C718.69 766.78 717.97 766.967 717.437 767.34C716.917 767.7 716.657 768.207 716.657 768.86C716.657 769.407 716.89 769.827 717.357 770.12C717.824 770.413 718.617 770.687 719.737 770.94C720.924 771.207 721.884 771.507 722.617 771.84C723.364 772.16 723.93 772.573 724.317 773.08C724.717 773.587 724.917 774.227 724.917 775C724.917 775.84 724.69 776.58 724.237 777.22C723.797 777.847 723.15 778.333 722.297 778.68C721.457 779.013 720.464 779.18 719.317 779.18ZM726.999 779V769.22H729.499V779H726.999ZM726.859 764.68H729.619V767.14H726.859V764.68ZM741.526 769.22V778.1C741.526 779.633 741.1 780.793 740.246 781.58C739.406 782.367 738.16 782.76 736.506 782.76C735.653 782.76 734.833 782.647 734.046 782.42C733.26 782.207 732.573 781.9 731.986 781.5L732.686 779.74C733.9 780.473 735.153 780.84 736.446 780.84C738.18 780.84 739.046 779.987 739.046 778.28V777C738.753 777.547 738.326 777.973 737.766 778.28C737.206 778.573 736.566 778.72 735.846 778.72C734.993 778.72 734.233 778.52 733.566 778.12C732.913 777.707 732.4 777.133 732.026 776.4C731.653 775.667 731.466 774.82 731.466 773.86C731.466 772.9 731.646 772.053 732.006 771.32C732.38 770.573 732.9 770 733.566 769.6C734.233 769.187 734.993 768.98 735.846 768.98C736.566 768.98 737.206 769.133 737.766 769.44C738.326 769.733 738.753 770.153 739.046 770.7V769.22H741.526ZM736.506 776.78C737.306 776.78 737.926 776.52 738.366 776C738.82 775.48 739.046 774.767 739.046 773.86C739.046 772.94 738.82 772.22 738.366 771.7C737.926 771.18 737.306 770.92 736.506 770.92C735.72 770.92 735.1 771.18 734.646 771.7C734.193 772.22 733.966 772.94 733.966 773.86C733.966 774.753 734.193 775.467 734.646 776C735.1 776.52 735.72 776.78 736.506 776.78ZM749.724 768.98C750.897 768.98 751.771 769.313 752.344 769.98C752.917 770.647 753.204 771.653 753.204 773V779H750.704V773.14C750.704 772.38 750.557 771.827 750.264 771.48C749.984 771.133 749.537 770.96 748.924 770.96C748.204 770.96 747.624 771.187 747.184 771.64C746.757 772.093 746.544 772.7 746.544 773.46V779H744.044V769.22H746.484V770.68C746.817 770.133 747.264 769.713 747.824 769.42C748.384 769.127 749.017 768.98 749.724 768.98ZM761.25 779V764.9H763.83V779H761.25ZM772.264 768.98C773.437 768.98 774.31 769.313 774.884 769.98C775.457 770.647 775.744 771.653 775.744 773V779H773.244V773.14C773.244 772.38 773.097 771.827 772.804 771.48C772.524 771.133 772.077 770.96 771.464 770.96C770.744 770.96 770.164 771.187 769.724 771.64C769.297 772.093 769.084 772.7 769.084 773.46V779H766.584V769.22H769.024V770.68C769.357 770.133 769.804 769.713 770.364 769.42C770.924 769.127 771.557 768.98 772.264 768.98Z" fill="white"/>
<rect x="487.5" y="584.5" width="515" height="55" rx="7.5" fill="#F1F4F9" stroke="#D8D8D8"/>
<path fill-rule="evenodd" clip-rule="evenodd" d="M510 619C513.866 619 517 615.866 517 612C517 608.134 513.866 605 510 605C506.134 605 503 608.134 503 612C503 615.866 506.134 619 510 619Z" fill="#A6A6A6"/>
<path fill-rule="evenodd" clip-rule="evenodd" d="M540 619C543.866 619 547 615.866 547 612C547 608.134 543.866 605 540 605C536.134 605 533 608.134 533 612C533 615.866 536.134 619 540 619Z" fill="#A6A6A6"/>
<path fill-rule="evenodd" clip-rule="evenodd" d="M570 619C573.866 619 577 615.866 577 612C577 608.134 573.866 605 570 605C566.134 605 563 608.134 563 612C563 615.866 566.134 619 570 619Z" fill="#A6A6A6"/>
<path fill-rule="evenodd" clip-rule="evenodd" d="M600 619C603.866 619 607 615.866 607 612C607 608.134 603.866 605 600 605C596.134 605 593 608.134 593 612C593 615.866 596.134 619 600 619Z" fill="#A6A6A6"/>
<path fill-rule="evenodd" clip-rule="evenodd" d="M630 619C633.866 619 637 615.866 637 612C637 608.134 633.866 605 630 605C626.134 605 623 608.134 623 612C623 615.866 626.134 619 630 619Z" fill="#A6A6A6"/>
<path fill-rule="evenodd" clip-rule="evenodd" d="M660 619C663.866 619 667 615.866 667 612C667 608.134 663.866 605 660 605C656.134 605 653 608.134 653 612C653 615.866 656.134 619 660 619Z" fill="#A6A6A6"/>
<path opacity="0.8" d="M488.476 549.31H493.732C495.076 549.31 496.12 549.64 496.864 550.3C497.608 550.96 497.98 551.896 497.98 553.108C497.98 554.308 497.608 555.244 496.864 555.916C496.12 556.588 495.076 556.924 493.732 556.924H490.33V562H488.476V549.31ZM493.534 555.43C495.31 555.43 496.198 554.656 496.198 553.108C496.198 551.572 495.31 550.804 493.534 550.804H490.33V555.43H493.534ZM503.399 553C504.575 553 505.445 553.294 506.009 553.882C506.585 554.47 506.873 555.364 506.873 556.564V562H505.127V560.542C504.899 561.058 504.557 561.454 504.101 561.73C503.657 561.994 503.135 562.126 502.535 562.126C501.959 562.126 501.431 562.012 500.951 561.784C500.471 561.544 500.093 561.214 499.817 560.794C499.553 560.374 499.421 559.906 499.421 559.39C499.421 558.754 499.583 558.256 499.907 557.896C500.243 557.524 500.789 557.26 501.545 557.104C502.313 556.948 503.363 556.87 504.695 556.87H505.109V556.348C505.109 555.676 504.965 555.19 504.677 554.89C504.401 554.59 503.945 554.44 503.309 554.44C502.313 554.44 501.317 554.746 500.321 555.358L499.781 554.08C500.249 553.756 500.813 553.498 501.473 553.306C502.145 553.102 502.787 553 503.399 553ZM502.859 560.776C503.519 560.776 504.059 560.554 504.479 560.11C504.899 559.654 505.109 559.072 505.109 558.364V557.896H504.785C503.849 557.896 503.129 557.938 502.625 558.022C502.121 558.106 501.761 558.25 501.545 558.454C501.329 558.646 501.221 558.928 501.221 559.3C501.221 559.72 501.371 560.074 501.671 560.362C501.983 560.638 502.379 560.776 502.859 560.776ZM512.391 562.126C510.867 562.126 509.649 561.754 508.737 561.01L509.295 559.696C510.195 560.392 511.245 560.74 512.445 560.74C513.033 560.74 513.483 560.644 513.795 560.452C514.107 560.248 514.263 559.966 514.263 559.606C514.263 559.294 514.155 559.048 513.939 558.868C513.735 558.688 513.375 558.538 512.859 558.418L511.401 558.094C510.621 557.914 510.033 557.62 509.637 557.212C509.241 556.804 509.043 556.288 509.043 555.664C509.043 554.872 509.361 554.23 509.997 553.738C510.645 553.246 511.491 553 512.535 553C513.159 553 513.753 553.102 514.317 553.306C514.881 553.498 515.367 553.774 515.775 554.134L515.217 555.412C514.353 554.728 513.459 554.386 512.535 554.386C511.983 554.386 511.545 554.494 511.221 554.71C510.909 554.926 510.753 555.22 510.753 555.592C510.753 555.892 510.849 556.138 511.041 556.33C511.245 556.51 511.563 556.648 511.995 556.744L513.489 557.086C514.341 557.278 514.965 557.578 515.361 557.986C515.757 558.382 515.955 558.904 515.955 559.552C515.955 560.344 515.631 560.974 514.983 561.442C514.347 561.898 513.483 562.126 512.391 562.126ZM521.011 562.126C519.487 562.126 518.269 561.754 517.357 561.01L517.915 559.696C518.815 560.392 519.865 560.74 521.065 560.74C521.653 560.74 522.103 560.644 522.415 560.452C522.727 560.248 522.883 559.966 522.883 559.606C522.883 559.294 522.775 559.048 522.559 558.868C522.355 558.688 521.995 558.538 521.479 558.418L520.021 558.094C519.241 557.914 518.653 557.62 518.257 557.212C517.861 556.804 517.663 556.288 517.663 555.664C517.663 554.872 517.981 554.23 518.617 553.738C519.265 553.246 520.111 553 521.155 553C521.779 553 522.373 553.102 522.937 553.306C523.501 553.498 523.987 553.774 524.395 554.134L523.837 555.412C522.973 554.728 522.079 554.386 521.155 554.386C520.603 554.386 520.165 554.494 519.841 554.71C519.529 554.926 519.373 555.22 519.373 555.592C519.373 555.892 519.469 556.138 519.661 556.33C519.865 556.51 520.183 556.648 520.615 556.744L522.109 557.086C522.961 557.278 523.585 557.578 523.981 557.986C524.377 558.382 524.575 558.904 524.575 559.552C524.575 560.344 524.251 560.974 523.603 561.442C522.967 561.898 522.103 562.126 521.011 562.126ZM538.291 553.216H540.091L536.725 562H535.087L532.765 555.718L530.443 562H528.787L525.439 553.216H527.329L529.705 559.822L532.099 553.216H533.521L535.915 559.858L538.291 553.216ZM545.28 562.126C544.416 562.126 543.654 561.94 542.994 561.568C542.346 561.196 541.842 560.668 541.482 559.984C541.134 559.288 540.96 558.484 540.96 557.572C540.96 556.648 541.134 555.844 541.482 555.16C541.842 554.464 542.346 553.93 542.994 553.558C543.654 553.186 544.416 553 545.28 553C546.144 553 546.9 553.186 547.548 553.558C548.208 553.93 548.712 554.464 549.06 555.16C549.42 555.844 549.6 556.648 549.6 557.572C549.6 558.484 549.42 559.288 549.06 559.984C548.712 560.668 548.208 561.196 547.548 561.568C546.9 561.94 546.144 562.126 545.28 562.126ZM545.28 560.686C546.084 560.686 546.696 560.422 547.116 559.894C547.548 559.366 547.764 558.592 547.764 557.572C547.764 556.564 547.548 555.796 547.116 555.268C546.684 554.728 546.072 554.458 545.28 554.458C544.488 554.458 543.876 554.728 543.444 555.268C543.012 555.796 542.796 556.564 542.796 557.572C542.796 558.592 543.006 559.366 543.426 559.894C543.858 560.422 544.476 560.686 545.28 560.686ZM556.906 554.53L555.808 554.638C554.944 554.722 554.32 554.986 553.936 555.43C553.564 555.874 553.378 556.438 553.378 557.122V562H551.56V553.216H553.324V554.746C553.792 553.714 554.746 553.144 556.186 553.036L556.78 553L556.906 554.53ZM566.012 549.31V562H564.212V560.488C563.948 561.016 563.564 561.424 563.06 561.712C562.556 561.988 561.974 562.126 561.314 562.126C560.558 562.126 559.88 561.934 559.28 561.55C558.692 561.166 558.23 560.626 557.894 559.93C557.57 559.234 557.408 558.436 557.408 557.536C557.408 556.624 557.57 555.826 557.894 555.142C558.23 554.458 558.692 553.93 559.28 553.558C559.868 553.186 560.546 553 561.314 553C561.974 553 562.55 553.144 563.042 553.432C563.546 553.708 563.93 554.104 564.194 554.62V549.31H566.012ZM561.746 560.686C562.538 560.686 563.144 560.416 563.564 559.876C563.996 559.336 564.212 558.568 564.212 557.572C564.212 556.576 563.996 555.808 563.564 555.268C563.144 554.728 562.538 554.458 561.746 554.458C560.954 554.458 560.336 554.728 559.892 555.268C559.46 555.796 559.244 556.552 559.244 557.536C559.244 558.52 559.466 559.294 559.91 559.858C560.354 560.41 560.966 560.686 561.746 560.686Z" fill="#202224"/>
<path opacity="0.6" d="M858.874 562V549.31H866.938V550.822H860.71V554.8H866.578V556.312H860.71V562H858.874ZM872.324 562.126C871.46 562.126 870.698 561.94 870.038 561.568C869.39 561.196 868.886 560.668 868.526 559.984C868.178 559.288 868.004 558.484 868.004 557.572C868.004 556.648 868.178 555.844 868.526 555.16C868.886 554.464 869.39 553.93 870.038 553.558C870.698 553.186 871.46 553 872.324 553C873.188 553 873.944 553.186 874.592 553.558C875.252 553.93 875.756 554.464 876.104 555.16C876.464 555.844 876.644 556.648 876.644 557.572C876.644 558.484 876.464 559.288 876.104 559.984C875.756 560.668 875.252 561.196 874.592 561.568C873.944 561.94 873.188 562.126 872.324 562.126ZM872.324 560.686C873.128 560.686 873.74 560.422 874.16 559.894C874.592 559.366 874.808 558.592 874.808 557.572C874.808 556.564 874.592 555.796 874.16 555.268C873.728 554.728 873.116 554.458 872.324 554.458C871.532 554.458 870.92 554.728 870.488 555.268C870.056 555.796 869.84 556.564 869.84 557.572C869.84 558.592 870.05 559.366 870.47 559.894C870.902 560.422 871.52 560.686 872.324 560.686ZM883.95 554.53L882.852 554.638C881.988 554.722 881.364 554.986 880.98 555.43C880.608 555.874 880.422 556.438 880.422 557.122V562H878.604V553.216H880.368V554.746C880.836 553.714 881.79 553.144 883.23 553.036L883.824 553L883.95 554.53ZM893.127 553.216V561.298C893.127 562.642 892.767 563.656 892.047 564.34C891.339 565.024 890.289 565.366 888.897 565.366C888.141 565.366 887.421 565.264 886.737 565.06C886.065 564.868 885.465 564.586 884.937 564.214L885.495 562.9C886.071 563.272 886.623 563.536 887.151 563.692C887.691 563.86 888.267 563.944 888.879 563.944C890.523 563.944 891.345 563.11 891.345 561.442V560.056C891.093 560.584 890.709 560.998 890.193 561.298C889.677 561.586 889.077 561.73 888.393 561.73C887.625 561.73 886.941 561.55 886.341 561.19C885.741 560.83 885.273 560.32 884.937 559.66C884.613 559 884.451 558.238 884.451 557.374C884.451 556.51 884.619 555.748 884.955 555.088C885.291 554.428 885.753 553.918 886.341 553.558C886.941 553.186 887.625 553 888.393 553C889.065 553 889.653 553.144 890.157 553.432C890.673 553.72 891.063 554.128 891.327 554.656V553.216H893.127ZM888.825 560.29C889.605 560.29 890.217 560.032 890.661 559.516C891.105 559 891.327 558.286 891.327 557.374C891.327 556.474 891.105 555.766 890.661 555.25C890.229 554.722 889.617 554.458 888.825 554.458C888.033 554.458 887.409 554.716 886.953 555.232C886.509 555.748 886.287 556.462 886.287 557.374C886.287 558.286 886.515 559 886.971 559.516C887.427 560.032 888.045 560.29 888.825 560.29ZM903.12 557.914H896.91C897.042 559.774 897.966 560.704 899.682 560.704C900.69 560.704 901.602 560.374 902.418 559.714L902.976 560.992C902.568 561.34 902.064 561.616 901.464 561.82C900.864 562.024 900.252 562.126 899.628 562.126C898.224 562.126 897.114 561.724 896.298 560.92C895.494 560.116 895.092 559.006 895.092 557.59C895.092 556.69 895.266 555.892 895.614 555.196C895.974 554.5 896.472 553.96 897.108 553.576C897.756 553.192 898.488 553 899.304 553C900.492 553 901.422 553.384 902.094 554.152C902.778 554.92 903.12 555.982 903.12 557.338V557.914ZM899.34 554.332C898.644 554.332 898.086 554.554 897.666 554.998C897.258 555.43 897.012 556.054 896.928 556.87H901.554C901.518 556.054 901.308 555.43 900.924 554.998C900.552 554.554 900.024 554.332 899.34 554.332ZM909.129 560.722C909.405 560.722 909.675 560.704 909.939 560.668L909.849 562.054C909.549 562.102 909.237 562.126 908.913 562.126C907.773 562.126 906.921 561.85 906.357 561.298C905.805 560.734 905.529 559.924 905.529 558.868V554.62H903.819V553.216H905.529V550.57H907.347V553.216H909.759V554.62H907.347V558.796C907.347 560.08 907.941 560.722 909.129 560.722ZM916.15 549.31H921.406C922.75 549.31 923.794 549.64 924.538 550.3C925.282 550.96 925.654 551.896 925.654 553.108C925.654 554.308 925.282 555.244 924.538 555.916C923.794 556.588 922.75 556.924 921.406 556.924H918.004V562H916.15V549.31ZM921.208 555.43C922.984 555.43 923.872 554.656 923.872 553.108C923.872 551.572 922.984 550.804 921.208 550.804H918.004V555.43H921.208ZM931.073 553C932.249 553 933.119 553.294 933.683 553.882C934.259 554.47 934.547 555.364 934.547 556.564V562H932.801V560.542C932.573 561.058 932.231 561.454 931.775 561.73C931.331 561.994 930.809 562.126 930.209 562.126C929.633 562.126 929.105 562.012 928.625 561.784C928.145 561.544 927.767 561.214 927.491 560.794C927.227 560.374 927.095 559.906 927.095 559.39C927.095 558.754 927.257 558.256 927.581 557.896C927.917 557.524 928.463 557.26 929.219 557.104C929.987 556.948 931.037 556.87 932.369 556.87H932.783V556.348C932.783 555.676 932.639 555.19 932.351 554.89C932.075 554.59 931.619 554.44 930.983 554.44C929.987 554.44 928.991 554.746 927.995 555.358L927.455 554.08C927.923 553.756 928.487 553.498 929.147 553.306C929.819 553.102 930.461 553 931.073 553ZM930.533 560.776C931.193 560.776 931.733 560.554 932.153 560.11C932.573 559.654 932.783 559.072 932.783 558.364V557.896H932.459C931.523 557.896 930.803 557.938 930.299 558.022C929.795 558.106 929.435 558.25 929.219 558.454C929.003 558.646 928.895 558.928 928.895 559.3C928.895 559.72 929.045 560.074 929.345 560.362C929.657 560.638 930.053 560.776 930.533 560.776ZM940.066 562.126C938.542 562.126 937.324 561.754 936.412 561.01L936.97 559.696C937.87 560.392 938.92 560.74 940.12 560.74C940.708 560.74 941.158 560.644 941.47 560.452C941.782 560.248 941.938 559.966 941.938 559.606C941.938 559.294 941.83 559.048 941.614 558.868C941.41 558.688 941.05 558.538 940.534 558.418L939.076 558.094C938.296 557.914 937.708 557.62 937.312 557.212C936.916 556.804 936.718 556.288 936.718 555.664C936.718 554.872 937.036 554.23 937.672 553.738C938.32 553.246 939.166 553 940.21 553C940.834 553 941.428 553.102 941.992 553.306C942.556 553.498 943.042 553.774 943.45 554.134L942.892 555.412C942.028 554.728 941.134 554.386 940.21 554.386C939.658 554.386 939.22 554.494 938.896 554.71C938.584 554.926 938.428 555.22 938.428 555.592C938.428 555.892 938.524 556.138 938.716 556.33C938.92 556.51 939.238 556.648 939.67 556.744L941.164 557.086C942.016 557.278 942.64 557.578 943.036 557.986C943.432 558.382 943.63 558.904 943.63 559.552C943.63 560.344 943.306 560.974 942.658 561.442C942.022 561.898 941.158 562.126 940.066 562.126ZM948.685 562.126C947.161 562.126 945.943 561.754 945.031 561.01L945.589 559.696C946.489 560.392 947.539 560.74 948.739 560.74C949.327 560.74 949.777 560.644 950.089 560.452C950.401 560.248 950.557 559.966 950.557 559.606C950.557 559.294 950.449 559.048 950.233 558.868C950.029 558.688 949.669 558.538 949.153 558.418L947.695 558.094C946.915 557.914 946.327 557.62 945.931 557.212C945.535 556.804 945.337 556.288 945.337 555.664C945.337 554.872 945.655 554.23 946.291 553.738C946.939 553.246 947.785 553 948.829 553C949.453 553 950.047 553.102 950.611 553.306C951.175 553.498 951.661 553.774 952.069 554.134L951.511 555.412C950.647 554.728 949.753 554.386 948.829 554.386C948.277 554.386 947.839 554.494 947.515 554.71C947.203 554.926 947.047 555.22 947.047 555.592C947.047 555.892 947.143 556.138 947.335 556.33C947.539 556.51 947.857 556.648 948.289 556.744L949.783 557.086C950.635 557.278 951.259 557.578 951.655 557.986C952.051 558.382 952.249 558.904 952.249 559.552C952.249 560.344 951.925 560.974 951.277 561.442C950.641 561.898 949.777 562.126 948.685 562.126ZM965.966 553.216H967.766L964.4 562H962.762L960.44 555.718L958.118 562H956.462L953.114 553.216H955.004L957.38 559.822L959.774 553.216H961.196L963.59 559.858L965.966 553.216ZM972.954 562.126C972.09 562.126 971.328 561.94 970.668 561.568C970.02 561.196 969.516 560.668 969.156 559.984C968.808 559.288 968.634 558.484 968.634 557.572C968.634 556.648 968.808 555.844 969.156 555.16C969.516 554.464 970.02 553.93 970.668 553.558C971.328 553.186 972.09 553 972.954 553C973.818 553 974.574 553.186 975.222 553.558C975.882 553.93 976.386 554.464 976.734 555.16C977.094 555.844 977.274 556.648 977.274 557.572C977.274 558.484 977.094 559.288 976.734 559.984C976.386 560.668 975.882 561.196 975.222 561.568C974.574 561.94 973.818 562.126 972.954 562.126ZM972.954 560.686C973.758 560.686 974.37 560.422 974.79 559.894C975.222 559.366 975.438 558.592 975.438 557.572C975.438 556.564 975.222 555.796 974.79 555.268C974.358 554.728 973.746 554.458 972.954 554.458C972.162 554.458 971.55 554.728 971.118 555.268C970.686 555.796 970.47 556.564 970.47 557.572C970.47 558.592 970.68 559.366 971.1 559.894C971.532 560.422 972.15 560.686 972.954 560.686ZM984.58 554.53L983.482 554.638C982.618 554.722 981.994 554.986 981.61 555.43C981.238 555.874 981.052 556.438 981.052 557.122V562H979.234V553.216H980.998V554.746C981.466 553.714 982.42 553.144 983.86 553.036L984.454 553L984.58 554.53ZM993.686 549.31V562H991.886V560.488C991.622 561.016 991.238 561.424 990.734 561.712C990.23 561.988 989.648 562.126 988.988 562.126C988.232 562.126 987.554 561.934 986.954 561.55C986.366 561.166 985.904 560.626 985.568 559.93C985.244 559.234 985.082 558.436 985.082 557.536C985.082 556.624 985.244 555.826 985.568 555.142C985.904 554.458 986.366 553.93 986.954 553.558C987.542 553.186 988.22 553 988.988 553C989.648 553 990.224 553.144 990.716 553.432C991.22 553.708 991.604 554.104 991.868 554.62V549.31H993.686ZM989.42 560.686C990.212 560.686 990.818 560.416 991.238 559.876C991.67 559.336 991.886 558.568 991.886 557.572C991.886 556.576 991.67 555.808 991.238 555.268C990.818 554.728 990.212 554.458 989.42 554.458C988.628 554.458 988.01 554.728 987.566 555.268C987.134 555.796 986.918 556.552 986.918 557.536C986.918 558.52 987.14 559.294 987.584 559.858C988.028 560.41 988.64 560.686 989.42 560.686ZM998.19 557.914C998.19 557.206 998.316 556.606 998.568 556.114C998.82 555.622 999.186 555.082 999.666 554.494C1000.05 554.014 1000.33 553.612 1000.51 553.288C1000.69 552.964 1000.78 552.598 1000.78 552.19C1000.78 551.722 1000.62 551.356 1000.3 551.092C999.972 550.828 999.522 550.696 998.946 550.696C998.406 550.696 997.842 550.816 997.254 551.056C996.678 551.284 996.114 551.62 995.562 552.064L994.896 550.696C995.4 550.228 996.03 549.856 996.786 549.58C997.542 549.304 998.298 549.166 999.054 549.166C1000.12 549.166 1000.99 549.43 1001.65 549.958C1002.31 550.486 1002.64 551.182 1002.64 552.046C1002.64 552.478 1002.56 552.88 1002.4 553.252C1002.26 553.624 1002.07 553.954 1001.84 554.242C1001.63 554.518 1001.33 554.866 1000.96 555.286C1000.45 555.85 1000.06 556.33 999.792 556.726C999.54 557.122 999.384 557.578 999.324 558.094L999.252 558.49H998.19V557.914ZM997.668 562V559.858H999.81V562H997.668Z" fill="#202224"/>
<rect x="487.5" y="448.5" width="515" height="55" rx="7.5" fill="#F1F4F9" stroke="#D8D8D8"/>
<path opacity="0.8" d="M493.606 426.162C491.914 426.162 490.618 425.718 489.718 424.83C488.83 423.93 488.386 422.616 488.386 420.888V413.31H490.258V420.852C490.258 423.312 491.374 424.542 493.606 424.542C495.838 424.542 496.954 423.312 496.954 420.852V413.31H498.79V420.888C498.79 422.616 498.352 423.93 497.476 424.83C496.6 425.718 495.31 426.162 493.606 426.162ZM504.493 426.162C503.773 426.162 503.101 426.072 502.477 425.892C501.853 425.7 501.331 425.436 500.911 425.1L501.433 423.876C501.877 424.188 502.363 424.428 502.891 424.596C503.431 424.764 503.971 424.848 504.511 424.848C505.147 424.848 505.627 424.734 505.951 424.506C506.275 424.278 506.437 423.972 506.437 423.588C506.437 423.276 506.329 423.036 506.113 422.868C505.897 422.688 505.573 422.55 505.141 422.454L503.431 422.112C501.919 421.8 501.163 421.02 501.163 419.772C501.163 418.944 501.493 418.284 502.153 417.792C502.813 417.3 503.677 417.054 504.745 417.054C505.357 417.054 505.939 417.144 506.491 417.324C507.055 417.504 507.523 417.774 507.895 418.134L507.373 419.358C507.013 419.046 506.599 418.806 506.131 418.638C505.663 418.47 505.201 418.386 504.745 418.386C504.121 418.386 503.647 418.506 503.323 418.746C502.999 418.974 502.837 419.286 502.837 419.682C502.837 420.282 503.233 420.666 504.025 420.834L505.735 421.176C506.515 421.332 507.103 421.596 507.499 421.968C507.907 422.34 508.111 422.844 508.111 423.48C508.111 424.32 507.781 424.98 507.121 425.46C506.461 425.928 505.585 426.162 504.493 426.162ZM514.191 426.162C512.751 426.162 511.617 425.76 510.789 424.956C509.961 424.14 509.547 423.03 509.547 421.626C509.547 420.726 509.727 419.934 510.087 419.25C510.459 418.554 510.969 418.014 511.617 417.63C512.265 417.246 513.009 417.054 513.849 417.054C515.061 417.054 516.015 417.444 516.711 418.224C517.407 418.992 517.755 420.054 517.755 421.41V422.022H511.311C511.443 423.846 512.409 424.758 514.209 424.758C514.713 424.758 515.205 424.68 515.685 424.524C516.177 424.368 516.639 424.11 517.071 423.75L517.611 425.01C517.215 425.37 516.705 425.652 516.081 425.856C515.457 426.06 514.827 426.162 514.191 426.162ZM513.921 418.332C513.165 418.332 512.565 418.566 512.121 419.034C511.677 419.502 511.407 420.126 511.311 420.906H516.225C516.189 420.09 515.973 419.46 515.577 419.016C515.181 418.56 514.629 418.332 513.921 418.332ZM519.673 426V417.216H521.437V418.782C521.893 417.738 522.841 417.156 524.281 417.036L524.875 417L525.001 418.548L523.903 418.656C522.307 418.812 521.509 419.634 521.509 421.122V426H519.673ZM526.324 426V417.216H528.088V418.674C528.388 418.146 528.796 417.744 529.312 417.468C529.84 417.192 530.428 417.054 531.076 417.054C533.152 417.054 534.19 418.23 534.19 420.582V426H532.372V420.69C532.372 419.934 532.222 419.382 531.922 419.034C531.634 418.686 531.178 418.512 530.554 418.512C529.822 418.512 529.234 418.746 528.79 419.214C528.358 419.67 528.142 420.276 528.142 421.032V426H526.324ZM539.438 426.162C538.826 426.162 538.28 426.042 537.8 425.802C537.32 425.562 536.936 425.238 536.648 424.83C536.372 424.422 536.234 423.96 536.234 423.444C536.234 422.796 536.396 422.286 536.72 421.914C537.056 421.542 537.602 421.272 538.358 421.104C539.126 420.936 540.158 420.852 541.454 420.852H542.066V420.384C542.066 419.7 541.922 419.208 541.634 418.908C541.346 418.608 540.872 418.458 540.212 418.458C539.708 418.458 539.204 418.536 538.7 418.692C538.196 418.836 537.68 419.07 537.152 419.394L536.594 418.116C537.05 417.792 537.62 417.534 538.304 417.342C538.988 417.15 539.642 417.054 540.266 417.054C541.466 417.054 542.354 417.342 542.93 417.918C543.506 418.482 543.794 419.37 543.794 420.582V426H542.084V424.542C541.868 425.046 541.532 425.442 541.076 425.73C540.62 426.018 540.074 426.162 539.438 426.162ZM539.798 424.866C540.446 424.866 540.986 424.638 541.418 424.182C541.85 423.726 542.066 423.15 542.066 422.454V421.968H541.472C540.596 421.968 539.906 422.01 539.402 422.094C538.91 422.178 538.556 422.322 538.34 422.526C538.136 422.718 538.034 422.988 538.034 423.336C538.034 423.792 538.19 424.164 538.502 424.452C538.814 424.728 539.246 424.866 539.798 424.866ZM546.27 426V417.216H548.034V418.638C548.298 418.134 548.664 417.744 549.132 417.468C549.6 417.192 550.146 417.054 550.77 417.054C552.114 417.054 552.984 417.642 553.38 418.818C553.656 418.266 554.052 417.834 554.568 417.522C555.084 417.21 555.672 417.054 556.332 417.054C558.3 417.054 559.284 418.23 559.284 420.582V426H557.466V420.672C557.466 419.928 557.334 419.382 557.07 419.034C556.818 418.686 556.398 418.512 555.81 418.512C555.15 418.512 554.628 418.746 554.244 419.214C553.86 419.67 553.668 420.294 553.668 421.086V426H551.85V420.672C551.85 419.928 551.724 419.382 551.472 419.034C551.22 418.686 550.8 418.512 550.212 418.512C549.552 418.512 549.03 418.746 548.646 419.214C548.274 419.67 548.088 420.294 548.088 421.086V426H546.27ZM565.884 426.162C564.444 426.162 563.31 425.76 562.482 424.956C561.654 424.14 561.24 423.03 561.24 421.626C561.24 420.726 561.42 419.934 561.78 419.25C562.152 418.554 562.662 418.014 563.31 417.63C563.958 417.246 564.702 417.054 565.542 417.054C566.754 417.054 567.708 417.444 568.404 418.224C569.1 418.992 569.448 420.054 569.448 421.41V422.022H563.004C563.136 423.846 564.102 424.758 565.902 424.758C566.406 424.758 566.898 424.68 567.378 424.524C567.87 424.368 568.332 424.11 568.764 423.75L569.304 425.01C568.908 425.37 568.398 425.652 567.774 425.856C567.15 426.06 566.52 426.162 565.884 426.162ZM565.614 418.332C564.858 418.332 564.258 418.566 563.814 419.034C563.37 419.502 563.1 420.126 563.004 420.906H567.918C567.882 420.09 567.666 419.46 567.27 419.016C566.874 418.56 566.322 418.332 565.614 418.332ZM579.846 426.162C578.958 426.162 578.19 425.976 577.542 425.604C576.894 425.232 576.39 424.71 576.03 424.038C575.682 423.354 575.508 422.544 575.508 421.608C575.508 420.672 575.682 419.868 576.03 419.196C576.39 418.512 576.894 417.984 577.542 417.612C578.19 417.24 578.958 417.054 579.846 417.054C580.71 417.054 581.466 417.24 582.114 417.612C582.762 417.984 583.266 418.512 583.626 419.196C583.986 419.868 584.166 420.672 584.166 421.608C584.166 422.544 583.986 423.354 583.626 424.038C583.266 424.71 582.762 425.232 582.114 425.604C581.466 425.976 580.71 426.162 579.846 426.162ZM579.846 424.758C580.59 424.758 581.19 424.488 581.646 423.948C582.102 423.408 582.33 422.628 582.33 421.608C582.33 420.588 582.102 419.814 581.646 419.286C581.19 418.746 580.59 418.476 579.846 418.476C579.09 418.476 578.484 418.746 578.028 419.286C577.572 419.814 577.344 420.588 577.344 421.608C577.344 422.628 577.572 423.408 578.028 423.948C578.484 424.488 579.09 424.758 579.846 424.758ZM586.143 426V417.216H587.907V418.782C588.363 417.738 589.311 417.156 590.751 417.036L591.345 417L591.471 418.548L590.373 418.656C588.777 418.812 587.979 419.634 587.979 421.122V426H586.143ZM597.656 426V413.31H605.864V414.822H599.456V418.8H605.486V420.312H599.456V424.488H605.864V426H597.656ZM607.957 421.932V420.456H613.141V421.932H607.957ZM615.664 426V417.216H617.428V418.638C617.692 418.134 618.058 417.744 618.526 417.468C618.994 417.192 619.54 417.054 620.164 417.054C621.508 417.054 622.378 417.642 622.774 418.818C623.05 418.266 623.446 417.834 623.962 417.522C624.478 417.21 625.066 417.054 625.726 417.054C627.694 417.054 628.678 418.23 628.678 420.582V426H626.86V420.672C626.86 419.928 626.728 419.382 626.464 419.034C626.212 418.686 625.792 418.512 625.204 418.512C624.544 418.512 624.022 418.746 623.638 419.214C623.254 419.67 623.062 420.294 623.062 421.086V426H621.244V420.672C621.244 419.928 621.118 419.382 620.866 419.034C620.614 418.686 620.194 418.512 619.606 418.512C618.946 418.512 618.424 418.746 618.04 419.214C617.668 419.67 617.482 420.294 617.482 421.086V426H615.664ZM633.964 426.162C633.352 426.162 632.806 426.042 632.326 425.802C631.846 425.562 631.462 425.238 631.174 424.83C630.898 424.422 630.76 423.96 630.76 423.444C630.76 422.796 630.922 422.286 631.246 421.914C631.582 421.542 632.128 421.272 632.884 421.104C633.652 420.936 634.684 420.852 635.98 420.852H636.592V420.384C636.592 419.7 636.448 419.208 636.16 418.908C635.872 418.608 635.398 418.458 634.738 418.458C634.234 418.458 633.73 418.536 633.226 418.692C632.722 418.836 632.206 419.07 631.678 419.394L631.12 418.116C631.576 417.792 632.146 417.534 632.83 417.342C633.514 417.15 634.168 417.054 634.792 417.054C635.992 417.054 636.88 417.342 637.456 417.918C638.032 418.482 638.32 419.37 638.32 420.582V426H636.61V424.542C636.394 425.046 636.058 425.442 635.602 425.73C635.146 426.018 634.6 426.162 633.964 426.162ZM634.324 424.866C634.972 424.866 635.512 424.638 635.944 424.182C636.376 423.726 636.592 423.15 636.592 422.454V421.968H635.998C635.122 421.968 634.432 422.01 633.928 422.094C633.436 422.178 633.082 422.322 632.866 422.526C632.662 422.718 632.56 422.988 632.56 423.336C632.56 423.792 632.716 424.164 633.028 424.452C633.34 424.728 633.772 424.866 634.324 424.866ZM640.597 415.182V413.292H642.721V415.182H640.597ZM640.759 426V417.216H642.577V426H640.759ZM647.934 426.162C646.974 426.162 646.254 425.892 645.774 425.352C645.306 424.812 645.072 424.02 645.072 422.976V413.31H646.89V422.868C646.89 424.056 647.376 424.65 648.348 424.65C648.492 424.65 648.624 424.644 648.744 424.632C648.876 424.62 649.008 424.596 649.14 424.56L649.104 426.018C648.696 426.114 648.306 426.162 647.934 426.162Z" fill="#202224"/>
<path d="M508.4 482.162C506.96 482.162 505.826 481.76 504.998 480.956C504.17 480.14 503.756 479.03 503.756 477.626C503.756 476.726 503.936 475.934 504.296 475.25C504.668 474.554 505.178 474.014 505.826 473.63C506.474 473.246 507.218 473.054 508.058 473.054C509.27 473.054 510.224 473.444 510.92 474.224C511.616 474.992 511.964 476.054 511.964 477.41V478.022H505.52C505.652 479.846 506.618 480.758 508.418 480.758C508.922 480.758 509.414 480.68 509.894 480.524C510.386 480.368 510.848 480.11 511.28 479.75L511.82 481.01C511.424 481.37 510.914 481.652 510.29 481.856C509.666 482.06 509.036 482.162 508.4 482.162ZM508.13 474.332C507.374 474.332 506.774 474.566 506.33 475.034C505.886 475.502 505.616 476.126 505.52 476.906H510.434C510.398 476.09 510.182 475.46 509.786 475.016C509.39 474.56 508.838 474.332 508.13 474.332ZM516.96 482.162C516.24 482.162 515.568 482.072 514.944 481.892C514.32 481.7 513.798 481.436 513.378 481.1L513.9 479.876C514.344 480.188 514.83 480.428 515.358 480.596C515.898 480.764 516.438 480.848 516.978 480.848C517.614 480.848 518.094 480.734 518.418 480.506C518.742 480.278 518.904 479.972 518.904 479.588C518.904 479.276 518.796 479.036 518.58 478.868C518.364 478.688 518.04 478.55 517.608 478.454L515.898 478.112C514.386 477.8 513.63 477.02 513.63 475.772C513.63 474.944 513.96 474.284 514.62 473.792C515.28 473.3 516.144 473.054 517.212 473.054C517.824 473.054 518.406 473.144 518.958 473.324C519.522 473.504 519.99 473.774 520.362 474.134L519.84 475.358C519.48 475.046 519.066 474.806 518.598 474.638C518.13 474.47 517.668 474.386 517.212 474.386C516.588 474.386 516.114 474.506 515.79 474.746C515.466 474.974 515.304 475.286 515.304 475.682C515.304 476.282 515.7 476.666 516.492 476.834L518.202 477.176C518.982 477.332 519.57 477.596 519.966 477.968C520.374 478.34 520.578 478.844 520.578 479.48C520.578 480.32 520.248 480.98 519.588 481.46C518.928 481.928 518.052 482.162 516.96 482.162ZM526.192 482.162C525.088 482.162 524.266 481.88 523.726 481.316C523.186 480.752 522.916 479.936 522.916 478.868V474.62H521.206V473.216H522.916V470.57H524.734V473.216H527.452V474.62H524.734V478.724C524.734 479.36 524.866 479.84 525.13 480.164C525.406 480.488 525.85 480.65 526.462 480.65C526.654 480.65 526.84 480.632 527.02 480.596C527.2 480.548 527.38 480.494 527.56 480.434L527.848 481.802C527.668 481.91 527.416 481.994 527.092 482.054C526.78 482.126 526.48 482.162 526.192 482.162ZM532.992 482.162C531.552 482.162 530.418 481.76 529.59 480.956C528.762 480.14 528.348 479.03 528.348 477.626C528.348 476.726 528.528 475.934 528.888 475.25C529.26 474.554 529.77 474.014 530.418 473.63C531.066 473.246 531.81 473.054 532.65 473.054C533.862 473.054 534.816 473.444 535.512 474.224C536.208 474.992 536.556 476.054 536.556 477.41V478.022H530.112C530.244 479.846 531.21 480.758 533.01 480.758C533.514 480.758 534.006 480.68 534.486 480.524C534.978 480.368 535.44 480.11 535.872 479.75L536.412 481.01C536.016 481.37 535.506 481.652 534.882 481.856C534.258 482.06 533.628 482.162 532.992 482.162ZM532.722 474.332C531.966 474.332 531.366 474.566 530.922 475.034C530.478 475.502 530.208 476.126 530.112 476.906H535.026C534.99 476.09 534.774 475.46 534.378 475.016C533.982 474.56 533.43 474.332 532.722 474.332ZM543.19 482.162C542.518 482.162 541.924 482.012 541.408 481.712C540.892 481.412 540.508 481.01 540.256 480.506V482H538.474V469.31H540.292V474.638C540.556 474.158 540.94 473.774 541.444 473.486C541.96 473.198 542.542 473.054 543.19 473.054C543.97 473.054 544.648 473.24 545.224 473.612C545.812 473.984 546.262 474.512 546.574 475.196C546.898 475.868 547.06 476.672 547.06 477.608C547.06 478.544 546.898 479.354 546.574 480.038C546.262 480.722 545.812 481.25 545.224 481.622C544.648 481.982 543.97 482.162 543.19 482.162ZM542.74 480.758C543.496 480.758 544.096 480.488 544.54 479.948C544.996 479.408 545.224 478.628 545.224 477.608C545.224 476.588 544.996 475.814 544.54 475.286C544.096 474.746 543.496 474.476 542.74 474.476C541.984 474.476 541.378 474.746 540.922 475.286C540.478 475.814 540.256 476.588 540.256 477.608C540.256 478.628 540.478 479.408 540.922 479.948C541.378 480.488 541.984 480.758 542.74 480.758ZM551.852 482.162C551.24 482.162 550.694 482.042 550.214 481.802C549.734 481.562 549.35 481.238 549.062 480.83C548.786 480.422 548.648 479.96 548.648 479.444C548.648 478.796 548.81 478.286 549.134 477.914C549.47 477.542 550.016 477.272 550.772 477.104C551.54 476.936 552.572 476.852 553.868 476.852H554.48V476.384C554.48 475.7 554.336 475.208 554.048 474.908C553.76 474.608 553.286 474.458 552.626 474.458C552.122 474.458 551.618 474.536 551.114 474.692C550.61 474.836 550.094 475.07 549.566 475.394L549.008 474.116C549.464 473.792 550.034 473.534 550.718 473.342C551.402 473.15 552.056 473.054 552.68 473.054C553.88 473.054 554.768 473.342 555.344 473.918C555.92 474.482 556.208 475.37 556.208 476.582V482H554.498V480.542C554.282 481.046 553.946 481.442 553.49 481.73C553.034 482.018 552.488 482.162 551.852 482.162ZM552.212 480.866C552.86 480.866 553.4 480.638 553.832 480.182C554.264 479.726 554.48 479.15 554.48 478.454V477.968H553.886C553.01 477.968 552.32 478.01 551.816 478.094C551.324 478.178 550.97 478.322 550.754 478.526C550.55 478.718 550.448 478.988 550.448 479.336C550.448 479.792 550.604 480.164 550.916 480.452C551.228 480.728 551.66 480.866 552.212 480.866ZM558.648 482V473.216H560.412V474.674C560.712 474.146 561.12 473.744 561.636 473.468C562.164 473.192 562.752 473.054 563.4 473.054C565.476 473.054 566.514 474.23 566.514 476.582V482H564.696V476.69C564.696 475.934 564.546 475.382 564.246 475.034C563.958 474.686 563.502 474.512 562.878 474.512C562.146 474.512 561.558 474.746 561.114 475.214C560.682 475.67 560.466 476.276 560.466 477.032V482H558.648ZM568.037 483.134V482H576.317V483.134H568.037ZM581.039 482.162C580.319 482.162 579.647 482.072 579.023 481.892C578.399 481.7 577.877 481.436 577.457 481.1L577.979 479.876C578.423 480.188 578.909 480.428 579.437 480.596C579.977 480.764 580.517 480.848 581.057 480.848C581.693 480.848 582.173 480.734 582.497 480.506C582.821 480.278 582.983 479.972 582.983 479.588C582.983 479.276 582.875 479.036 582.659 478.868C582.443 478.688 582.119 478.55 581.687 478.454L579.977 478.112C578.465 477.8 577.709 477.02 577.709 475.772C577.709 474.944 578.039 474.284 578.699 473.792C579.359 473.3 580.223 473.054 581.291 473.054C581.903 473.054 582.485 473.144 583.037 473.324C583.601 473.504 584.069 473.774 584.441 474.134L583.919 475.358C583.559 475.046 583.145 474.806 582.677 474.638C582.209 474.47 581.747 474.386 581.291 474.386C580.667 474.386 580.193 474.506 579.869 474.746C579.545 474.974 579.383 475.286 579.383 475.682C579.383 476.282 579.779 476.666 580.571 476.834L582.281 477.176C583.061 477.332 583.649 477.596 584.045 477.968C584.453 478.34 584.657 478.844 584.657 479.48C584.657 480.32 584.327 480.98 583.667 481.46C583.007 481.928 582.131 482.162 581.039 482.162ZM590.485 482.162C589.585 482.162 588.805 481.976 588.145 481.604C587.497 481.22 586.993 480.686 586.633 480.002C586.273 479.306 586.093 478.49 586.093 477.554C586.093 476.162 586.489 475.064 587.281 474.26C588.073 473.456 589.141 473.054 590.485 473.054C591.037 473.054 591.583 473.15 592.123 473.342C592.663 473.534 593.107 473.798 593.455 474.134L592.879 475.412C592.543 475.1 592.171 474.872 591.763 474.728C591.367 474.572 590.989 474.494 590.629 474.494C589.777 474.494 589.117 474.764 588.649 475.304C588.193 475.832 587.965 476.588 587.965 477.572C587.965 478.556 588.193 479.33 588.649 479.894C589.117 480.446 589.777 480.722 590.629 480.722C590.989 480.722 591.367 480.65 591.763 480.506C592.171 480.35 592.543 480.116 592.879 479.804L593.455 481.1C593.107 481.424 592.657 481.682 592.105 481.874C591.565 482.066 591.025 482.162 590.485 482.162ZM594.953 482V469.31H596.771V474.584C597.071 474.08 597.473 473.702 597.977 473.45C598.493 473.186 599.069 473.054 599.705 473.054C601.781 473.054 602.819 474.23 602.819 476.582V482H601.001V476.69C601.001 475.934 600.851 475.382 600.551 475.034C600.263 474.686 599.807 474.512 599.183 474.512C598.451 474.512 597.863 474.746 597.419 475.214C596.987 475.67 596.771 476.276 596.771 477.032V482H594.953ZM605.098 471.182V469.292H607.222V471.182H605.098ZM605.26 482V473.216H607.078V482H605.26ZM612.435 482.162C611.475 482.162 610.755 481.892 610.275 481.352C609.807 480.812 609.573 480.02 609.573 478.976V469.31H611.391V478.868C611.391 480.056 611.877 480.65 612.849 480.65C612.993 480.65 613.125 480.644 613.245 480.632C613.377 480.62 613.509 480.596 613.641 480.56L613.605 482.018C613.197 482.114 612.807 482.162 612.435 482.162ZM617.873 482.162C616.913 482.162 616.193 481.892 615.713 481.352C615.245 480.812 615.011 480.02 615.011 478.976V469.31H616.829V478.868C616.829 480.056 617.315 480.65 618.287 480.65C618.431 480.65 618.563 480.644 618.683 480.632C618.815 480.62 618.947 480.596 619.079 480.56L619.043 482.018C618.635 482.114 618.245 482.162 617.873 482.162ZM624.482 482.162C623.042 482.162 621.908 481.76 621.08 480.956C620.252 480.14 619.838 479.03 619.838 477.626C619.838 476.726 620.018 475.934 620.378 475.25C620.75 474.554 621.26 474.014 621.908 473.63C622.556 473.246 623.3 473.054 624.14 473.054C625.352 473.054 626.306 473.444 627.002 474.224C627.698 474.992 628.046 476.054 628.046 477.41V478.022H621.602C621.734 479.846 622.7 480.758 624.5 480.758C625.004 480.758 625.496 480.68 625.976 480.524C626.468 480.368 626.93 480.11 627.362 479.75L627.902 481.01C627.506 481.37 626.996 481.652 626.372 481.856C625.748 482.06 625.118 482.162 624.482 482.162ZM624.212 474.332C623.456 474.332 622.856 474.566 622.412 475.034C621.968 475.502 621.698 476.126 621.602 476.906H626.516C626.48 476.09 626.264 475.46 625.868 475.016C625.472 474.56 624.92 474.332 624.212 474.332ZM629.964 482V473.216H631.728V474.782C632.184 473.738 633.132 473.156 634.572 473.036L635.166 473L635.292 474.548L634.194 474.656C632.598 474.812 631.8 475.634 631.8 477.122V482H629.964ZM644.067 484.952C642.543 484.952 641.199 484.628 640.035 483.98C638.883 483.344 637.983 482.438 637.335 481.262C636.699 480.086 636.381 478.706 636.381 477.122C636.381 475.934 636.573 474.854 636.957 473.882C637.341 472.898 637.881 472.052 638.577 471.344C639.285 470.636 640.125 470.096 641.097 469.724C642.081 469.34 643.161 469.148 644.337 469.148C645.741 469.148 646.965 469.424 648.009 469.976C649.065 470.528 649.887 471.308 650.475 472.316C651.063 473.312 651.357 474.482 651.357 475.826C651.357 476.858 651.213 477.758 650.925 478.526C650.637 479.294 650.235 479.888 649.719 480.308C649.203 480.728 648.597 480.938 647.901 480.938C647.313 480.938 646.833 480.8 646.461 480.524C646.089 480.248 645.855 479.858 645.759 479.354C645.423 479.882 645.021 480.278 644.553 480.542C644.097 480.806 643.611 480.938 643.095 480.938C642.147 480.938 641.409 480.644 640.881 480.056C640.365 479.468 640.107 478.658 640.107 477.626C640.107 476.75 640.275 475.97 640.611 475.286C640.947 474.59 641.409 474.044 641.997 473.648C642.585 473.252 643.251 473.054 643.995 473.054C645.099 473.054 645.843 473.504 646.227 474.404L646.443 473.216H647.847L647.073 477.734C647.001 478.082 646.965 478.388 646.965 478.652C646.965 479.42 647.307 479.804 647.991 479.804C648.639 479.804 649.161 479.438 649.557 478.706C649.953 477.974 650.151 477.014 650.151 475.826C650.151 474.698 649.911 473.726 649.431 472.91C648.963 472.082 648.291 471.446 647.415 471.002C646.539 470.558 645.507 470.336 644.319 470.336C642.999 470.336 641.841 470.618 640.845 471.182C639.861 471.734 639.093 472.52 638.541 473.54C637.989 474.56 637.713 475.754 637.713 477.122C637.713 478.502 637.971 479.69 638.487 480.686C639.003 481.682 639.735 482.444 640.683 482.972C641.643 483.5 642.771 483.764 644.067 483.764C645.003 483.764 645.855 483.62 646.623 483.332C647.391 483.056 648.039 482.66 648.567 482.144L649.215 483.152C648.639 483.728 647.907 484.172 647.019 484.484C646.131 484.796 645.147 484.952 644.067 484.952ZM643.329 479.732C643.821 479.732 644.259 479.582 644.643 479.282C645.039 478.97 645.345 478.55 645.561 478.022C645.789 477.482 645.903 476.87 645.903 476.186C645.903 474.914 645.333 474.278 644.193 474.278C643.689 474.278 643.239 474.422 642.843 474.71C642.459 474.998 642.153 475.394 641.925 475.898C641.709 476.39 641.601 476.96 641.601 477.608C641.601 478.292 641.751 478.82 642.051 479.192C642.351 479.552 642.777 479.732 643.329 479.732ZM657.597 485.402C656.805 485.402 656.067 485.306 655.383 485.114C654.699 484.934 654.093 484.646 653.565 484.25L654.123 482.954C654.651 483.314 655.191 483.578 655.743 483.746C656.295 483.914 656.871 483.998 657.471 483.998C659.151 483.998 659.991 483.158 659.991 481.478V480.092C659.739 480.62 659.343 481.034 658.803 481.334C658.275 481.634 657.681 481.784 657.021 481.784C656.229 481.784 655.539 481.604 654.951 481.244C654.363 480.872 653.907 480.362 653.583 479.714C653.259 479.054 653.097 478.286 653.097 477.41C653.097 476.546 653.259 475.79 653.583 475.142C653.907 474.482 654.363 473.972 654.951 473.612C655.539 473.24 656.229 473.054 657.021 473.054C657.693 473.054 658.293 473.204 658.821 473.504C659.349 473.804 659.739 474.218 659.991 474.746V473.216H661.755V481.262C661.755 482.642 661.401 483.674 660.693 484.358C659.985 485.054 658.953 485.402 657.597 485.402ZM657.453 480.362C658.221 480.362 658.833 480.098 659.289 479.57C659.745 479.042 659.973 478.322 659.973 477.41C659.973 476.498 659.745 475.784 659.289 475.268C658.833 474.74 658.221 474.476 657.453 474.476C656.685 474.476 656.073 474.74 655.617 475.268C655.161 475.784 654.933 476.498 654.933 477.41C654.933 478.322 655.161 479.042 655.617 479.57C656.073 480.098 656.685 480.362 657.453 480.362ZM664.278 482V473.216H666.042V474.638C666.306 474.134 666.672 473.744 667.14 473.468C667.608 473.192 668.154 473.054 668.778 473.054C670.122 473.054 670.992 473.642 671.388 474.818C671.664 474.266 672.06 473.834 672.576 473.522C673.092 473.21 673.68 473.054 674.34 473.054C676.308 473.054 677.292 474.23 677.292 476.582V482H675.474V476.672C675.474 475.928 675.342 475.382 675.078 475.034C674.826 474.686 674.406 474.512 673.818 474.512C673.158 474.512 672.636 474.746 672.252 475.214C671.868 475.67 671.676 476.294 671.676 477.086V482H669.858V476.672C669.858 475.928 669.732 475.382 669.48 475.034C669.228 474.686 668.808 474.512 668.22 474.512C667.56 474.512 667.038 474.746 666.654 475.214C666.282 475.67 666.096 476.294 666.096 477.086V482H664.278ZM682.577 482.162C681.965 482.162 681.419 482.042 680.939 481.802C680.459 481.562 680.075 481.238 679.787 480.83C679.511 480.422 679.373 479.96 679.373 479.444C679.373 478.796 679.535 478.286 679.859 477.914C680.195 477.542 680.741 477.272 681.497 477.104C682.265 476.936 683.297 476.852 684.593 476.852H685.205V476.384C685.205 475.7 685.061 475.208 684.773 474.908C684.485 474.608 684.011 474.458 683.351 474.458C682.847 474.458 682.343 474.536 681.839 474.692C681.335 474.836 680.819 475.07 680.291 475.394L679.733 474.116C680.189 473.792 680.759 473.534 681.443 473.342C682.127 473.15 682.781 473.054 683.405 473.054C684.605 473.054 685.493 473.342 686.069 473.918C686.645 474.482 686.933 475.37 686.933 476.582V482H685.223V480.542C685.007 481.046 684.671 481.442 684.215 481.73C683.759 482.018 683.213 482.162 682.577 482.162ZM682.937 480.866C683.585 480.866 684.125 480.638 684.557 480.182C684.989 479.726 685.205 479.15 685.205 478.454V477.968H684.611C683.735 477.968 683.045 478.01 682.541 478.094C682.049 478.178 681.695 478.322 681.479 478.526C681.275 478.718 681.173 478.988 681.173 479.336C681.173 479.792 681.329 480.164 681.641 480.452C681.953 480.728 682.385 480.866 682.937 480.866ZM689.211 471.182V469.292H691.335V471.182H689.211ZM689.373 482V473.216H691.191V482H689.373ZM696.548 482.162C695.588 482.162 694.868 481.892 694.388 481.352C693.92 480.812 693.686 480.02 693.686 478.976V469.31H695.504V478.868C695.504 480.056 695.99 480.65 696.962 480.65C697.106 480.65 697.238 480.644 697.358 480.632C697.49 480.62 697.622 480.596 697.754 480.56L697.718 482.018C697.31 482.114 696.92 482.162 696.548 482.162ZM699.083 482V479.858H701.225V482H699.083ZM707.025 482.162C706.125 482.162 705.345 481.976 704.685 481.604C704.037 481.22 703.533 480.686 703.173 480.002C702.813 479.306 702.633 478.49 702.633 477.554C702.633 476.162 703.029 475.064 703.821 474.26C704.613 473.456 705.681 473.054 707.025 473.054C707.577 473.054 708.123 473.15 708.663 473.342C709.203 473.534 709.647 473.798 709.995 474.134L709.419 475.412C709.083 475.1 708.711 474.872 708.303 474.728C707.907 474.572 707.529 474.494 707.169 474.494C706.317 474.494 705.657 474.764 705.189 475.304C704.733 475.832 704.505 476.588 704.505 477.572C704.505 478.556 704.733 479.33 705.189 479.894C705.657 480.446 706.317 480.722 707.169 480.722C707.529 480.722 707.907 480.65 708.303 480.506C708.711 480.35 709.083 480.116 709.419 479.804L709.995 481.1C709.647 481.424 709.197 481.682 708.645 481.874C708.105 482.066 707.565 482.162 707.025 482.162ZM715.133 482.162C714.245 482.162 713.477 481.976 712.829 481.604C712.181 481.232 711.677 480.71 711.317 480.038C710.969 479.354 710.795 478.544 710.795 477.608C710.795 476.672 710.969 475.868 711.317 475.196C711.677 474.512 712.181 473.984 712.829 473.612C713.477 473.24 714.245 473.054 715.133 473.054C715.997 473.054 716.753 473.24 717.401 473.612C718.049 473.984 718.553 474.512 718.913 475.196C719.273 475.868 719.453 476.672 719.453 477.608C719.453 478.544 719.273 479.354 718.913 480.038C718.553 480.71 718.049 481.232 717.401 481.604C716.753 481.976 715.997 482.162 715.133 482.162ZM715.133 480.758C715.877 480.758 716.477 480.488 716.933 479.948C717.389 479.408 717.617 478.628 717.617 477.608C717.617 476.588 717.389 475.814 716.933 475.286C716.477 474.746 715.877 474.476 715.133 474.476C714.377 474.476 713.771 474.746 713.315 475.286C712.859 475.814 712.631 476.588 712.631 477.608C712.631 478.628 712.859 479.408 713.315 479.948C713.771 480.488 714.377 480.758 715.133 480.758ZM721.467 482V473.216H723.231V474.638C723.495 474.134 723.861 473.744 724.329 473.468C724.797 473.192 725.343 473.054 725.967 473.054C727.311 473.054 728.181 473.642 728.577 474.818C728.853 474.266 729.249 473.834 729.765 473.522C730.281 473.21 730.869 473.054 731.529 473.054C733.497 473.054 734.481 474.23 734.481 476.582V482H732.663V476.672C732.663 475.928 732.531 475.382 732.267 475.034C732.015 474.686 731.595 474.512 731.007 474.512C730.347 474.512 729.825 474.746 729.441 475.214C729.057 475.67 728.865 476.294 728.865 477.086V482H727.047V476.672C727.047 475.928 726.921 475.382 726.669 475.034C726.417 474.686 725.997 474.512 725.409 474.512C724.749 474.512 724.227 474.746 723.843 475.214C723.471 475.67 723.285 476.294 723.285 477.086V482H721.467Z" fill="#A6A6A6"/>
<path d="M622.688 318V295.6H627.616V313.52H638.784V318H622.688ZM649.978 318.384C644.698 318.384 640.73 314.48 640.73 309.52V309.456C640.73 304.528 644.698 300.528 650.042 300.528C655.322 300.528 659.29 304.432 659.29 309.392V309.456C659.29 314.384 655.322 318.384 649.978 318.384ZM650.042 314.192C652.826 314.192 654.49 312.08 654.49 309.52V309.456C654.49 306.928 652.666 304.72 649.978 304.72C647.194 304.72 645.53 306.832 645.53 309.392V309.456C645.53 311.984 647.354 314.192 650.042 314.192ZM670.377 323.184C667.561 323.184 664.969 322.544 662.793 321.392L664.457 317.744C666.249 318.736 667.945 319.312 670.249 319.312C673.577 319.312 675.145 317.712 675.145 314.64V313.808C673.705 315.568 672.137 316.592 669.545 316.592C665.545 316.592 661.929 313.712 661.929 308.592V308.528C661.929 303.408 665.609 300.528 669.545 300.528C672.201 300.528 673.769 301.648 675.081 303.088V300.848H679.945V314.128C679.945 317.168 679.209 319.44 677.769 320.88C676.137 322.512 673.705 323.184 670.377 323.184ZM670.953 312.56C673.353 312.56 675.145 310.928 675.145 308.592V308.528C675.145 306.192 673.353 304.56 670.953 304.56C668.585 304.56 666.793 306.192 666.793 308.528V308.592C666.793 310.992 668.553 312.56 670.953 312.56ZM684.273 298.96V294.64H689.393V298.96H684.273ZM684.401 318V300.848H689.265V318H684.401ZM693.719 318V300.848H698.583V303.28C699.703 301.84 701.175 300.528 703.607 300.528C707.319 300.528 709.431 302.928 709.431 306.896V318H704.567V308.432C704.567 306.128 703.511 304.944 701.623 304.944C699.735 304.944 698.583 306.128 698.583 308.432V318H693.719ZM728.814 318.288C725.87 318.288 723.822 317.104 723.822 313.136V305.008H721.774V300.848H723.822V296.464H728.686V300.848H732.718V305.008H728.686V312.336C728.686 313.456 729.198 314 730.254 314C731.118 314 731.918 313.808 732.654 313.392V317.296C731.63 317.904 730.446 318.288 728.814 318.288ZM744.136 318.384C738.856 318.384 734.888 314.48 734.888 309.52V309.456C734.888 304.528 738.856 300.528 744.2 300.528C749.48 300.528 753.448 304.432 753.448 309.392V309.456C753.448 314.384 749.48 318.384 744.136 318.384ZM744.2 314.192C746.984 314.192 748.648 312.08 748.648 309.52V309.456C748.648 306.928 746.824 304.72 744.136 304.72C741.352 304.72 739.688 306.832 739.688 309.392V309.456C739.688 311.984 741.512 314.192 744.2 314.192ZM764.927 318L774.527 295.44H779.071L788.671 318H783.519L781.471 312.976H771.999L769.951 318H764.927ZM773.759 308.624H779.711L776.735 301.36L773.759 308.624ZM798.785 318.384C793.633 318.384 789.857 314.384 789.857 309.52V309.456C789.857 304.56 793.601 300.528 798.849 300.528C802.081 300.528 804.065 301.616 805.697 303.408L802.721 306.608C801.601 305.456 800.577 304.72 798.817 304.72C796.385 304.72 794.657 306.832 794.657 309.392V309.456C794.657 312.112 796.353 314.192 799.009 314.192C800.641 314.192 801.761 313.488 802.945 312.368L805.793 315.248C804.129 317.072 802.209 318.384 798.785 318.384ZM816.484 318.384C811.332 318.384 807.556 314.384 807.556 309.52V309.456C807.556 304.56 811.3 300.528 816.548 300.528C819.78 300.528 821.764 301.616 823.396 303.408L820.42 306.608C819.3 305.456 818.276 304.72 816.516 304.72C814.084 304.72 812.356 306.832 812.356 309.392V309.456C812.356 312.112 814.052 314.192 816.708 314.192C818.34 314.192 819.46 313.488 820.644 312.368L823.492 315.248C821.828 317.072 819.908 318.384 816.484 318.384ZM834.502 318.384C829.222 318.384 825.254 314.48 825.254 309.52V309.456C825.254 304.528 829.222 300.528 834.566 300.528C839.846 300.528 843.814 304.432 843.814 309.392V309.456C843.814 314.384 839.846 318.384 834.502 318.384ZM834.566 314.192C837.35 314.192 839.014 312.08 839.014 309.52V309.456C839.014 306.928 837.19 304.72 834.502 304.72C831.718 304.72 830.054 306.832 830.054 309.392V309.456C830.054 311.984 831.878 314.192 834.566 314.192ZM852.918 318.32C849.206 318.32 847.094 315.92 847.094 311.952V300.848H851.958V310.416C851.958 312.72 853.014 313.904 854.902 313.904C856.79 313.904 857.942 312.72 857.942 310.416V300.848H862.806V318H857.942V315.568C856.822 317.008 855.35 318.32 852.918 318.32ZM867.045 318V300.848H871.909V303.28C873.029 301.84 874.501 300.528 876.933 300.528C880.645 300.528 882.757 302.928 882.757 306.896V318H877.893V308.432C877.893 306.128 876.837 304.944 874.949 304.944C873.061 304.944 871.909 306.128 871.909 308.432V318H867.045ZM892.66 318.288C889.716 318.288 887.668 317.104 887.668 313.136V305.008H885.62V300.848H887.668V296.464H892.532V300.848H896.564V305.008H892.532V312.336C892.532 313.456 893.044 314 894.1 314C894.964 314 895.764 313.808 896.5 313.392V317.296C895.476 317.904 894.292 318.288 892.66 318.288Z" fill="#202224"/>
</g>
<defs>
<linearGradient id="paint0_linear_849_10601" x1="-0.012772" y1="535" x2="1440" y2="535" gradientUnits="userSpaceOnUse">
<stop stop-color="#F26E23"/>
<stop offset="1" stop-color="#F24606"/>
</linearGradient>
<linearGradient id="paint1_linear_849_10601" x1="535.996" y1="772" x2="954" y2="772" gradientUnits="userSpaceOnUse">
<stop stop-color="#F26E23"/>
<stop offset="1" stop-color="#F24606"/>
</linearGradient>
<clipPath id="clip0_849_10601">
<rect width="1440" height="1070" fill="white"/>
</clipPath>
</defs>
</svg>
