<svg width="1512" height="982" viewBox="0 0 1512 982" fill="none" xmlns="http://www.w3.org/2000/svg">
<rect width="1512" height="982" fill="url(#paint0_linear_1302_3677)"/>
<path d="M469.91 495.116C469.97 493.754 470 492.38 470 491C470 436.409 425.591 392 370.999 392C322.777 392 282.502 426.648 273.76 472.36C272.606 478.396 272 484.631 272 491C272 491.773 272.005 492.547 272.025 493.313L280.363 495.192L293.132 498.065L334.585 507.397L361.526 513.463L396.848 521.42L396.835 521.432L438.295 530.769C438.252 530.834 438.212 530.906 438.17 530.971C424.514 553.84 399.517 569.183 370.999 569.183C338.479 569.183 310.532 549.23 298.767 520.921L275.091 515.593C286.053 558.325 324.895 590 370.999 590C409.585 590 443.087 567.81 459.407 535.523C462.554 529.313 465.056 522.73 466.841 515.862L446.513 511.282C446.496 511.354 446.471 511.431 446.454 511.501L429.087 507.594H429.082L409.069 503.086C409.093 503.014 409.116 502.936 409.141 502.866C409.141 502.866 409.143 502.862 409.146 502.854C409.151 502.824 409.164 502.801 409.171 502.771C410.319 499.048 410.937 495.099 410.937 491.002C410.937 487.755 410.551 484.602 409.813 481.582C405.572 464.091 389.783 451.06 371.001 451.06C350.893 451.06 334.21 466 331.468 485.359C331.456 485.442 331.444 485.519 331.433 485.603L294.041 477.183C294.054 477.106 294.071 477.023 294.084 476.946C300.727 440.518 332.689 412.821 371.001 412.821C413.93 412.821 448.882 447.588 449.179 490.445V490.45L469.912 495.118L469.91 495.116ZM351.908 489.966C351.908 489.936 351.913 489.913 351.913 489.883C352.431 480.902 359.17 473.569 367.87 472.136H367.875C368.892 471.964 369.933 471.874 370.997 471.874C375.042 471.874 378.788 473.14 381.882 475.288L381.894 475.293C386.861 478.749 390.12 484.499 390.12 491C390.12 493.534 389.627 495.954 388.722 498.167C388.717 498.191 388.705 498.219 388.692 498.244C388.692 498.249 388.687 498.256 388.687 498.262C388.657 498.334 388.627 498.399 388.597 498.471L366.045 493.392L351.896 490.21C351.901 490.127 351.901 490.05 351.908 489.966Z" fill="#FFF7F2"/>
<path d="M1237.33 498.165H1221.1L1179.1 443.036V498.165H1160.27V411.444H1177.86L1218.5 464.84V411.444H1237.33V498.165Z" fill="#FFF7F2"/>
<path d="M1143.35 454.805C1143.35 479.459 1123.9 499.652 1097.14 499.652C1070.38 499.652 1051.17 479.706 1051.17 455.053V454.805C1051.17 430.152 1070.62 409.958 1097.38 409.958C1124.14 409.958 1143.35 429.904 1143.35 454.557V454.805ZM1123.4 455.053V454.805C1123.4 439.939 1112.5 427.55 1097.14 427.55C1081.77 427.55 1071.12 439.691 1071.12 454.557V454.805C1071.12 469.672 1082.02 482.06 1097.38 482.06C1112.75 482.06 1123.4 469.919 1123.4 455.053Z" fill="#FFF7F2"/>
<path d="M1033.34 498.165H1014.26V411.444H1033.34V498.165Z" fill="#FFF7F2"/>
<path d="M996.839 472.52C996.839 489.741 983.707 499.404 965 499.404C951.868 499.404 938.612 494.82 928.206 485.528L939.479 472.025C947.284 478.467 955.461 482.555 965.372 482.555C973.177 482.555 977.884 479.458 977.884 474.379V474.131C977.884 469.299 974.911 466.821 960.416 463.105C942.948 458.645 931.674 453.813 931.674 436.593V436.345C931.674 420.612 944.311 410.205 962.027 410.205C974.663 410.205 985.441 414.169 994.237 421.231L984.326 435.602C976.645 430.275 969.088 427.054 961.779 427.054C954.47 427.054 950.629 430.399 950.629 434.611V434.859C950.629 440.557 954.346 442.416 969.336 446.256C986.928 450.84 996.839 457.158 996.839 472.272V472.52Z" fill="#FFF7F2"/>
<path d="M912.479 498.165H893.401V411.444H912.479V498.165Z" fill="#FFF7F2"/>
<path d="M879.154 411.444L844.094 498.785H827.246L792.186 411.444H813.246L835.918 472.521L858.589 411.444H879.154Z" fill="#FFF7F2"/>
<path d="M787.462 498.165H765.163L746.58 470.415H731.589V498.165H712.511V411.444H752.155C772.596 411.444 784.861 422.223 784.861 440.062V440.31C784.861 454.309 777.304 463.105 766.278 467.193L787.462 498.165ZM765.534 441.301V441.053C765.534 432.877 759.836 428.665 750.544 428.665H731.589V453.566H750.916C760.207 453.566 765.534 448.61 765.534 441.301Z" fill="#FFF7F2"/>
<path d="M693.078 460.38C693.078 486.644 678.335 499.528 655.045 499.528C631.754 499.528 617.507 486.52 617.507 460.999V411.444H636.585V460.504C636.585 474.627 643.647 481.936 655.292 481.936C666.938 481.936 673.999 474.874 673.999 461.123V411.444H693.078V460.38Z" fill="#FFF7F2"/>
<path d="M602.312 472.52C602.312 489.741 589.18 499.404 570.473 499.404C557.341 499.404 544.085 494.82 533.679 485.528L544.952 472.025C552.757 478.467 560.934 482.555 570.845 482.555C578.65 482.555 583.357 479.458 583.357 474.379V474.131C583.357 469.299 580.384 466.821 565.889 463.105C548.421 458.645 537.148 453.813 537.148 436.593V436.345C537.148 420.612 549.784 410.205 567.5 410.205C580.136 410.205 590.914 414.169 599.71 421.231L589.8 435.602C582.119 430.275 574.561 427.054 567.252 427.054C559.943 427.054 556.102 430.399 556.102 434.611V434.859C556.102 440.557 559.819 442.416 574.809 446.256C592.401 450.84 602.312 457.158 602.312 472.272V472.52Z" fill="#FFF7F2"/>
<path d="M1209.59 566.512V532.29H1216.53L1232.57 553.361V532.29H1240V566.512H1233.6L1217.02 544.757V566.512H1209.59Z" fill="#FFF7F2"/>
<path d="M1184.68 567.099C1174.12 567.099 1166.54 559.228 1166.54 549.499V549.401C1166.54 539.672 1174.21 531.703 1184.77 531.703C1195.33 531.703 1202.91 539.574 1202.91 549.303V549.401C1202.91 559.13 1195.24 567.099 1184.68 567.099ZM1184.77 560.156C1190.84 560.156 1195.04 555.365 1195.04 549.499V549.401C1195.04 543.534 1190.74 538.645 1184.68 538.645C1178.61 538.645 1174.41 543.436 1174.41 549.303V549.401C1174.41 555.268 1178.71 560.156 1184.77 560.156Z" fill="#FFF7F2"/>
<path d="M1151.97 566.512V532.29H1159.5V566.512H1151.97Z" fill="#FFF7F2"/>
<path d="M1132.53 567.001C1127.3 567.001 1122.12 565.241 1118.01 561.525L1122.46 556.196C1125.59 558.739 1128.77 560.352 1132.68 560.352C1135.81 560.352 1137.62 559.13 1137.62 557.125V557.027C1137.62 555.121 1136.44 554.094 1130.72 552.676C1123.78 550.965 1119.38 548.961 1119.38 542.214V542.116C1119.38 535.907 1124.32 531.801 1131.36 531.801C1136.39 531.801 1140.55 533.365 1144.07 536.152L1140.16 541.823C1137.08 539.721 1134.19 538.45 1131.26 538.45C1128.33 538.45 1126.86 539.721 1126.86 541.432V541.53C1126.86 543.827 1128.33 544.463 1134.24 546.027C1141.19 547.885 1145.1 550.33 1145.1 556.294V556.392C1145.1 563.187 1139.91 567.001 1132.53 567.001Z" fill="#FFF7F2"/>
<path d="M1104.28 566.512V532.29H1111.81V566.512H1104.28Z" fill="#FFF7F2"/>
<path d="M1078.17 566.757L1064.34 532.29H1072.65L1081.59 556.392L1090.54 532.29H1098.66L1084.82 566.757H1078.17Z" fill="#FFF7F2"/>
<path d="M1017.28 566.512V532.29H1032.93C1037.28 532.29 1040.6 533.463 1042.9 535.761C1044.86 537.717 1045.83 540.308 1045.83 543.583V543.681C1045.83 549.206 1042.85 552.677 1038.5 554.29L1046.86 566.512H1038.06L1030.73 555.561H1024.81V566.512H1017.28ZM1024.81 548.912H1032.44C1036.15 548.912 1038.21 547.006 1038.21 544.072V543.974C1038.21 540.699 1036.01 539.086 1032.29 539.086H1024.81V548.912Z" fill="#FFF7F2"/>
<path d="M975.725 566.512L990.391 532.045H997.334L1012 566.512H1004.13L1001 558.836H986.529L983.4 566.512H975.725ZM989.218 552.187H998.311L993.765 541.089L989.218 552.187Z" fill="#FFF7F2"/>
<path d="M945.906 566.512V532.29H971.72V538.988H953.386V545.93H969.52V552.628H953.386V559.814H971.964V566.512H945.906Z" fill="#FFF7F2"/>
<path d="M915.637 566.512V532.29H923.166V559.668H940.228V566.512H915.637Z" fill="#FFF7F2"/>
<path d="M895.579 567.099C885.508 567.099 878.028 559.325 878.028 549.499V549.401C878.028 539.672 885.361 531.703 895.872 531.703C902.277 531.703 906.237 533.854 909.366 536.983L904.574 542.508C901.886 540.112 899.294 538.645 895.823 538.645C890.054 538.645 885.899 543.436 885.899 549.303V549.401C885.899 555.268 889.957 560.156 895.823 560.156C899.734 560.156 902.13 558.641 904.819 556.148L909.61 560.988C906.09 564.752 902.228 567.099 895.579 567.099Z" fill="#FFF7F2"/>
<path d="M823.329 566.512L837.996 532.045H844.938L859.605 566.512H851.734L848.605 558.836H834.134L831.005 566.512H823.329ZM836.822 552.187H845.916L841.369 541.089L836.822 552.187Z" fill="#FFF7F2"/>
<path d="M806.922 566.512V539.232H796.509V532.29H824.864V539.232H814.451V566.512H806.922Z" fill="#FFF7F2"/>
<path d="M761.788 566.512L776.455 532.045H783.397L798.064 566.512H790.193L787.064 558.836H772.593L769.464 566.512H761.788ZM775.281 552.187H784.375L779.828 541.089L775.281 552.187Z" fill="#FFF7F2"/>
<path d="M728.914 566.512V532.29H742.261C753.016 532.29 760.447 539.672 760.447 549.303V549.401C760.447 559.032 753.016 566.512 742.261 566.512H728.914ZM742.261 539.086H736.443V559.717H742.261C748.372 559.717 752.576 555.561 752.576 549.499V549.401C752.576 543.339 748.372 539.086 742.261 539.086Z" fill="#FFF7F2"/>
<path d="M678.927 566.512V532.29H694.572C698.923 532.29 702.247 533.463 704.545 535.761C706.501 537.717 707.478 540.308 707.478 543.583V543.681C707.478 549.206 704.496 552.677 700.145 554.29L708.505 566.512H699.705L692.372 555.561H686.456V566.512H678.927ZM686.456 548.912H694.083C697.798 548.912 699.852 547.006 699.852 544.072V543.974C699.852 540.699 697.652 539.086 693.936 539.086H686.456V548.912Z" fill="#FFF7F2"/>
<path d="M637.37 566.512L652.036 532.045H658.979L673.645 566.512H665.774L662.645 558.836H648.174L645.045 566.512H637.37ZM650.863 552.187H659.956L655.41 541.089L650.863 552.187Z" fill="#FFF7F2"/>
<path d="M607.551 566.512V532.29H633.365V538.988H615.031V545.93H631.165V552.628H615.031V559.814H633.609V566.512H607.551Z" fill="#FFF7F2"/>
<path d="M577.282 566.512V532.29H584.811V559.668H601.873V566.512H577.282Z" fill="#FFF7F2"/>
<path d="M557.224 567.099C547.153 567.099 539.673 559.325 539.673 549.499V549.401C539.673 539.672 547.006 531.703 557.517 531.703C563.922 531.703 567.882 533.854 571.011 536.983L566.22 542.508C563.531 540.112 560.94 538.645 557.468 538.645C551.7 538.645 547.544 543.436 547.544 549.303V549.401C547.544 555.268 551.602 560.156 557.468 560.156C561.38 560.156 563.775 558.641 566.464 556.148L571.255 560.988C567.735 564.752 563.873 567.099 557.224 567.099Z" fill="#FFF7F2"/>
<defs>
<linearGradient id="paint0_linear_1302_3677" x1="-0.0134106" y1="491" x2="1512" y2="491" gradientUnits="userSpaceOnUse">
<stop stop-color="#F26E23"/>
<stop offset="1" stop-color="#F24606"/>
</linearGradient>
</defs>
</svg>
