<?xml version="1.0" encoding="UTF-8"?>
<svg id="Layer_1" data-name="Layer 1" xmlns="http://www.w3.org/2000/svg" viewBox="0 0 2216 1000">
  <defs>
    <style>
      .cls-1 {
        fill: #01db86;
      }

      .cls-2 {
        fill: #333;
      }

      .cls-3 {
        fill: #0b2e34;
      }
    </style>
  </defs>
  <g>
    <path class="cls-1" d="m480.33,104.27h-203.56c-31.84,0-57.66,25.81-57.66,57.66v674.05c0,51.37,62.11,77.09,98.43,40.77l341.36-341.36c159.09-159.09,46.42-431.12-178.57-431.12Z"/>
    <path class="cls-3" d="m782.3,664.04v177.79c0,28.68-23.25,51.92-51.92,51.92h-177.79c-204.66,0-307.15-247.44-162.43-392.15h0c144.71-144.71,392.15-42.22,392.15,162.43Z"/>
  </g>
  <g>
    <path class="cls-2" d="m1083.66,293.3c4.11-7.74,9.07-13,14.88-15.79,5.81-2.78,13.67-4.17,23.59-4.17h3.99c2.41,0,3.63,1.45,3.63,4.35v24.68c0,2.9-1.21,4.35-3.63,4.35h-9.44c-13.31,0-21.96,3.33-25.95,9.98-3.99,6.66-5.99,16.4-5.99,29.22v59.88c0,2.66-1.21,3.99-3.63,3.99h-27.22c-2.18,0-3.26-1.33-3.26-3.99v-128.11c0-2.9,1.09-4.35,3.26-4.35h1.82c15.73,0,25.04,6.66,27.94,19.96Z"/>
    <path class="cls-2" d="m1252.42,392.74c-4.84,6.53-11.01,11.56-18.51,15.06-7.5,3.5-15.49,5.26-23.95,5.26-13.55,0-24.98-3.27-34.3-9.8-9.32-6.53-16.33-15.24-21.05-26.13-4.72-10.89-7.08-22.86-7.08-35.93s2.54-25.7,7.62-36.47c5.08-10.76,12.4-19.29,21.96-25.58,9.56-6.29,20.74-9.44,33.57-9.44,10.64,0,19.65,1.94,27.04,5.81,7.38,3.87,13.25,8.47,17.6,13.79,1.93-5.56,5.14-9.62,9.62-12.16,4.47-2.54,9.85-3.81,16.15-3.81h1.82c2.66,0,3.99,1.45,3.99,4.35v128.11c0,2.66-1.33,3.99-3.99,3.99h-26.86c-2.42,0-3.63-1.33-3.63-3.99v-13.07Zm-34.84-12.34c4.59,0,9.62-1.03,15.06-3.08,5.44-2.05,10.1-5.86,13.97-11.43,3.87-5.56,5.81-13.79,5.81-24.68s-1.94-19.05-5.81-24.5c-3.87-5.44-8.47-9.07-13.79-10.89-5.33-1.81-10.29-2.72-14.88-2.72-4.84,0-9.98,1.09-15.42,3.27-5.44,2.18-10.04,6.05-13.79,11.61-3.75,5.57-5.62,13.31-5.62,23.23,0,10.41,2,18.45,5.99,24.13,3.99,5.69,8.65,9.62,13.97,11.8,5.32,2.18,10.16,3.27,14.52,3.27Z"/>
    <path class="cls-2" d="m1420.45,392.74c-10.16,13.55-24.31,20.32-42.46,20.32-13.55,0-24.98-3.27-34.3-9.8-9.32-6.53-16.33-15.24-21.05-26.13-4.72-10.89-7.08-22.86-7.08-35.93s2.6-25.7,7.8-36.47c5.2-10.76,12.58-19.29,22.14-25.58,9.55-6.29,20.74-9.44,33.57-9.44,10.64,0,19.65,1.94,27.04,5.81,7.38,3.87,13.25,8.47,17.6,13.79,1.69-5.56,4.77-9.62,9.26-12.16,4.47-2.54,10.1-3.81,16.88-3.81h1.81c2.42,0,3.63,1.45,3.63,4.35v186.18c0,2.66-1.21,3.99-3.63,3.99h-27.22c-2.67,0-3.99-1.33-3.99-3.99v-71.13Zm-34.48-12.34c4.59,0,9.55-1.03,14.88-3.08,5.32-2.05,9.92-5.86,13.79-11.43,3.87-5.56,5.81-13.79,5.81-24.68s-1.94-19.05-5.81-24.5c-3.87-5.44-8.47-9.07-13.79-10.89-5.33-1.81-10.16-2.72-14.52-2.72-4.84,0-10.04,1.09-15.6,3.27-5.57,2.18-10.22,5.99-13.97,11.43-3.75,5.44-5.62,13.25-5.62,23.41s2,18.45,5.99,24.13c3.99,5.69,8.71,9.62,14.15,11.8,5.44,2.18,10.34,3.27,14.7,3.27Z"/>
    <path class="cls-2" d="m1520.98,290.39c4.36-5.81,9.74-10.52,16.15-14.15,6.41-3.63,14.09-5.44,23.04-5.44,21.29,0,36.41,7.98,45.36,23.95,4.84-6.53,10.89-12.16,18.15-16.88,7.26-4.72,15.97-7.08,26.13-7.08,17.18,0,30.67,5.08,40.46,15.24,9.8,10.16,14.7,25.28,14.7,45.36v74.4c0,2.66-1.45,3.99-4.36,3.99h-26.86c-2.42,0-3.63-1.33-3.63-3.99v-70.41c0-12.1-2.6-20.69-7.8-25.77-5.2-5.08-11.79-7.62-19.78-7.62s-14.7,2.67-20.14,7.98c-5.44,5.33-8.16,13.92-8.16,25.77v70.04c0,2.66-1.21,3.99-3.63,3.99h-27.22c-2.67,0-3.99-1.33-3.99-3.99v-70.41c0-12.1-2.54-20.69-7.62-25.77-5.08-5.08-11.74-7.62-19.96-7.62s-15,2.67-20.32,7.98c-5.32,5.33-7.98,13.92-7.98,25.77v70.04c0,2.66-1.33,3.99-3.99,3.99h-27.58c-2.18,0-3.26-1.33-3.26-3.99v-128.11c0-2.9,1.09-4.35,3.26-4.35h1.82c7.01,0,12.88,1.39,17.6,4.17,4.72,2.78,7.92,7.08,9.62,12.88Z"/>
    <path class="cls-2" d="m1767.76,353.91c1.21,9.68,5.44,17.06,12.7,22.14,7.26,5.08,16.45,7.62,27.58,7.62,9.19,0,16.81-.97,22.86-2.9,6.04-1.93,12.09-4.59,18.14-7.98,2.18-1.45,4.11-2.18,5.81-2.18,2.66,0,3.99,1.7,3.99,5.08,0,5.08-1.88,10.52-5.63,16.33-3.75,5.81-9.62,10.83-17.6,15.06-7.98,4.23-18.63,6.35-31.94,6.35s-24.98-2.72-35.75-8.16c-10.77-5.44-19.3-13.55-25.59-24.32-6.29-10.76-9.44-24.01-9.44-39.74,0-13.79,2.72-26.01,8.17-36.65,5.44-10.65,13.18-18.99,23.23-25.04,10.04-6.05,21.83-9.07,35.38-9.07,14.52,0,26.31,2.97,35.38,8.89,9.07,5.93,15.72,13.61,19.96,23.05,4.23,9.44,6.35,19.48,6.35,30.12,0,3.63-.06,6.84-.18,9.62-.12,2.78-.31,5.14-.54,7.08-.24,3.15-2.3,4.72-6.17,4.72h-86.74Zm0-25.04h58.79c.48-4.11.06-8.4-1.27-12.88-1.33-4.47-4.06-8.28-8.16-11.43-4.12-3.14-9.92-4.72-17.42-4.72-9.2,0-16.51,2.6-21.96,7.8-5.44,5.21-8.77,12.28-9.98,21.23Z"/>
    <path class="cls-2" d="m1922,291.12c4.59-6.29,10.46-11.25,17.6-14.88,7.13-3.63,14.94-5.44,23.41-5.44,17.18,0,30.67,5.08,40.46,15.24,9.8,10.16,14.7,25.28,14.7,45.36v74.4c0,2.66-1.33,3.99-3.99,3.99h-26.86c-2.67,0-3.99-1.33-3.99-3.99v-70.04c0-11.85-2.78-20.32-8.35-25.4-5.57-5.08-12.58-7.62-21.05-7.62s-15.49,2.6-21.05,7.8c-5.57,5.21-8.35,13.85-8.35,25.95v69.32c0,2.66-1.45,3.99-4.36,3.99h-26.49c-2.67,0-3.99-1.33-3.99-3.99v-128.11c0-2.9,1.33-4.35,3.99-4.35h1.82c7.01,0,12.82,1.51,17.42,4.54,4.59,3.03,7.62,7.44,9.07,13.25Z"/>
  </g>
  <g>
    <path class="cls-2" d="m1217.22,645.32h67.5v26.85h-69.32c-5.57,0-10.7-.66-15.42-1.99-4.72-1.33-9.02-3.09-12.88-5.26-1.94,18.87-7.08,34.6-15.42,47.18-8.35,12.58-18.93,22.01-31.75,28.31-12.83,6.29-27.22,9.44-43.19,9.44s-31.94-3.69-45.73-11.07c-13.79-7.39-24.68-17.91-32.66-31.57-7.98-13.67-11.98-30.07-11.98-49.18,0-15.48,3.45-29.52,10.34-42.1,6.9-12.58,15.54-21.9,25.95-27.95,1.93-.97,3.63-1.45,5.08-1.45,3.14,0,4.72,1.45,4.72,4.36,0,.97-.61,2.31-1.81,4-5.57,9.19-9.92,18.63-13.06,28.31-3.15,9.68-4.72,19.36-4.72,29.03-.24,16.46,2.72,30,8.89,40.65,6.17,10.64,14.15,18.51,23.95,23.59,9.8,5.08,20.14,7.62,31.03,7.62,11.61,0,22.26-2.6,31.94-7.8,9.67-5.21,17.36-13.25,23.04-24.14,5.68-10.88,8.53-24.55,8.53-41.01v-84.56c0-7.74,2-13.72,5.99-17.96,3.99-4.23,9.37-6.35,16.15-6.35h2.54c1.93,0,2.9.85,2.9,2.54v66.41c.24,11.61,3.14,20.21,8.71,25.77,5.56,5.57,12.46,8.35,20.69,8.35Zm-119.4-92.91c-5.08,0-9.38-1.75-12.88-5.26-3.51-3.5-5.26-7.8-5.26-12.88s1.75-9.37,5.26-12.88c3.5-3.51,7.8-5.26,12.88-5.26s9.01,1.76,12.52,5.26c3.5,3.51,5.26,7.8,5.26,12.88s-1.76,9.38-5.26,12.88c-3.51,3.51-7.68,5.26-12.52,5.26Z"/>
    <path class="cls-2" d="m1480.33,645.32h19.96v26.85h-18.87c-9.44,0-17.66-1.5-24.68-4.54-7.02-3.02-12.95-6.83-17.78-11.43-5.08,6.53-11.55,11.38-19.42,14.52-7.86,3.14-16.75,4.72-26.67,4.72-11.86,0-23.17-1.52-33.93-4.54-10.77-3.02-21.59-7.44-32.48-13.25-6.05,6.77-12.58,10.89-19.6,12.34-7.02,1.45-14.76,2.18-23.23,2.18h-3.27v-26.85h2.9c6.53,0,11.79-.79,15.79-2.36,3.99-1.57,7.74-4.95,11.25-10.16,3.51-5.2,7.56-13,12.16-23.41,6.05-12.58,12.03-24.5,17.96-35.75,5.93-11.25,12.88-20.44,20.87-27.58,7.98-7.13,17.78-10.7,29.4-10.7,14.27,0,25.82,3.69,34.66,11.07,8.83,7.38,15.36,16.87,19.6,28.49,4.23,11.61,6.35,23.84,6.35,36.66v1.09c.24,11.13,3.27,19.36,9.07,24.68,5.81,5.33,12.46,7.99,19.96,7.99Zm-86.37,3.99c4.84-.24,9.44-1.33,13.79-3.27,4.35-1.93,7.92-5.5,10.7-10.7,2.78-5.2,4.17-12.76,4.17-22.68,0-18.63-3.03-31.88-9.07-39.74-6.05-7.86-13.31-11.79-21.78-11.79-7.75,0-14.82,5.32-21.23,15.96-6.41,10.65-13.13,23.83-20.14,39.56-1.7,3.87-3.27,7.26-4.72,10.16-1.45,2.9-2.78,5.44-3.99,7.62,10.4,5.81,20.2,9.8,29.4,11.98,9.19,2.18,16.81,3.14,22.86,2.9Z"/>
    <path class="cls-2" d="m1865.74,535.36c12.1,0,22.8,2.9,32.12,8.71,9.31,5.8,16.63,13.85,21.96,24.13,5.32,10.29,7.98,22.2,7.98,35.75s-2.6,25.04-7.8,35.2c-5.21,10.16-12.34,18.14-21.41,23.95-9.07,5.8-19.54,8.83-31.39,9.07h-371.26v-26.85h320.82c-4.35-5.08-7.62-11.25-9.8-18.51-2.18-7.26-3.27-14.88-3.27-22.86,0-13.55,2.66-25.46,7.98-35.75,5.32-10.28,12.7-18.33,22.14-24.13,9.44-5.81,20.08-8.71,31.94-8.71Zm-23.23-24.32c-4.35,0-8.05-1.57-11.07-4.72-3.03-3.14-4.54-7.01-4.54-11.61,0-4.83,1.51-8.76,4.54-11.79,3.02-3.02,6.72-4.54,11.07-4.54,4.59,0,8.47,1.52,11.61,4.54,3.14,3.03,4.72,6.96,4.72,11.79s-1.57,8.48-4.72,11.61c-3.15,3.15-7.02,4.72-11.61,4.72Zm23.23,134.28c7.5,0,13.79-2.12,18.87-6.35,5.08-4.23,8.89-9.55,11.43-15.97,2.54-6.41,3.81-13,3.81-19.78s-1.27-13.37-3.81-19.78c-2.54-6.41-6.35-11.73-11.43-15.97-5.08-4.23-11.38-6.35-18.87-6.35s-13.79,2.12-18.87,6.35c-5.08,4.24-8.89,9.56-11.43,15.97-2.54,6.41-3.81,13.01-3.81,19.78s1.27,13.37,3.81,19.78c2.54,6.42,6.35,11.74,11.43,15.97,5.08,4.24,11.37,6.35,18.87,6.35Zm22.86-134.28c-4.6,0-8.41-1.57-11.43-4.72-3.03-3.14-4.54-7.01-4.54-11.61,0-4.83,1.51-8.76,4.54-11.79,3.02-3.02,6.83-4.54,11.43-4.54,4.36,0,8.04,1.52,11.07,4.54,3.02,3.03,4.54,6.96,4.54,11.79s-1.51,8.48-4.54,11.61c-3.03,3.15-6.71,4.72-11.07,4.72Z"/>
    <path class="cls-2" d="m1954.3,724.07c12.82-.24,22.08-4.84,27.76-13.79,5.68-8.95,8.53-21.17,8.53-36.65v-107.06c0-16.21,7.26-24.32,21.77-24.32h2.54c2.18,0,3.27.97,3.27,2.91v122.3c0,25.4-4.72,45.54-14.15,60.42-9.44,14.88-24.44,22.19-45,21.96-8.95-.25-17.48-2.54-25.58-6.9-8.1-4.36-13.73-10.04-16.88-17.06-1.21-2.67-1.27-4.78-.18-6.35,1.09-1.58,2.48-2.36,4.17-2.36.97,0,1.94.18,2.9.54.97.36,1.81.66,2.54.9,5.32,1.69,10.04,3.03,14.15,3.99,4.12.97,8.83,1.45,14.15,1.45Z"/>
  </g>
</svg>